<svg version="1.1" viewBox="0.0 0.0 600.0 371.0" fill="none" stroke="none" stroke-linecap="square" stroke-miterlimit="10" width="600" height="371" xmlns:xlink="http://www.w3.org/1999/xlink" xmlns="http://www.w3.org/2000/svg"><path fill="#ffffff" d="M0 0L600.0 0L600.0 371.0L0 371.0L0 0Z" fill-rule="nonzero"/><path stroke="#cccccc" stroke-width="1.0" stroke-linecap="butt" d="M148.5 61.5L148.5 332.5" fill-rule="nonzero"/><path stroke="#cccccc" stroke-width="1.0" stroke-linecap="butt" d="M317.5 61.5L317.5 332.5" fill-rule="nonzero"/><path stroke="#cccccc" stroke-width="1.0" stroke-linecap="butt" d="M485.5 61.5L485.5 332.5" fill-rule="nonzero"/><path stroke="#333333" stroke-width="1.0" stroke-linecap="butt" d="M52.5 332.5L581.5 332.5" fill-rule="nonzero"/><path stroke="#cccccc" stroke-width="1.0" stroke-linecap="butt" d="M52.5 242.5L581.5 242.5" fill-rule="nonzero"/><path stroke="#cccccc" stroke-width="1.0" stroke-linecap="butt" d="M52.5 152.5L581.5 152.5" fill-rule="nonzero"/><path stroke="#cccccc" stroke-width="1.0" stroke-linecap="butt" d="M52.5 61.5L581.5 61.5" fill-rule="nonzero"/><clipPath id="id_0"><path d="M52.55 61.916668L581.45 61.916668L581.45 332.45L52.55 332.45L52.55 61.916668Z" clip-rule="nonzero"/></clipPath><path stroke="#ff6d01" stroke-width="4.0" stroke-linecap="butt" clip-path="url(#id_0)" d="M52.55 332.45L76.59091 332.4049L100.63182 332.4049L124.67273 332.26965L148.71364 332.17947L172.75455 331.954L196.79546 331.77368L220.83636 331.41296L244.87727 331.14243L268.91818 330.19556L292.95908 329.33887L317.0 327.9411L341.04092 324.51434L365.08182 321.22287L389.12274 314.5948L413.16364 303.86365L437.20456 296.55923L461.24545 278.92947L485.28638 256.1145L509.32727 223.10945L533.36816 195.83067L557.4091 176.03665L581.45 89.06018" fill-rule="nonzero"/><path fill="#000000" fill-opacity="0.0" clip-path="url(#id_0)" d="M55.55 332.45C55.55 334.10684 54.206856 335.45 52.55 335.45C50.893147 335.45 49.55 334.10684 49.55 332.45C49.55 330.79315 50.893147 329.45 52.55 329.45C54.206856 329.45 55.55 330.79315 55.55 332.45Z" fill-rule="nonzero"/><path fill="#000000" fill-opacity="0.0" clip-path="url(#id_0)" d="M79.59091 332.4049C79.59091 334.06177 78.247765 335.4049 76.59091 335.4049C74.93405 335.4049 73.59091 334.06177 73.59091 332.4049C73.59091 330.74805 74.93405 329.4049 76.59091 329.4049C78.247765 329.4049 79.59091 330.74805 79.59091 332.4049Z" fill-rule="nonzero"/><path fill="#000000" fill-opacity="0.0" clip-path="url(#id_0)" d="M103.63182 332.4049C103.63182 334.06177 102.28867 335.4049 100.63182 335.4049C98.97496 335.4049 97.63182 334.06177 97.63182 332.4049C97.63182 330.74805 98.97496 329.4049 100.63182 329.4049C102.28867 329.4049 103.63182 330.74805 103.63182 332.4049Z" fill-rule="nonzero"/><path fill="#000000" fill-opacity="0.0" clip-path="url(#id_0)" d="M127.67273 332.26965C127.67273 333.9265 126.32958 335.26965 124.67273 335.26965C123.01588 335.26965 121.67273 333.9265 121.67273 332.26965C121.67273 330.6128 123.01588 329.26965 124.67273 329.26965C126.32958 329.26965 127.67273 330.6128 127.67273 332.26965Z" fill-rule="nonzero"/><path fill="#000000" fill-opacity="0.0" clip-path="url(#id_0)" d="M151.71364 332.17947C151.71364 333.83633 150.37048 335.17947 148.71364 335.17947C147.05678 335.17947 145.71364 333.83633 145.71364 332.17947C145.71364 330.5226 147.05678 329.17947 148.71364 329.17947C150.37048 329.17947 151.71364 330.5226 151.71364 332.17947Z" fill-rule="nonzero"/><path fill="#000000" fill-opacity="0.0" clip-path="url(#id_0)" d="M175.75455 331.954C175.75455 333.61087 174.41139 334.954 172.75455 334.954C171.09769 334.954 169.75455 333.61087 169.75455 331.954C169.75455 330.29718 171.09769 328.954 172.75455 328.954C174.41139 328.954 175.75455 330.29718 175.75455 331.954Z" fill-rule="nonzero"/><path fill="#000000" fill-opacity="0.0" clip-path="url(#id_0)" d="M199.79546 331.77368C199.79546 333.4305 198.45232 334.77368 196.79546 334.77368C195.1386 334.77368 193.79546 333.4305 193.79546 331.77368C193.79546 330.11682 195.1386 328.77368 196.79546 328.77368C198.45232 328.77368 199.79546 330.11682 199.79546 331.77368Z" fill-rule="nonzero"/><path fill="#000000" fill-opacity="0.0" clip-path="url(#id_0)" d="M223.83636 331.41296C223.83636 333.06982 222.49323 334.41296 220.83636 334.41296C219.1795 334.41296 217.83636 333.06982 217.83636 331.41296C217.83636 329.7561 219.1795 328.41296 220.83636 328.41296C222.49323 328.41296 223.83636 329.7561 223.83636 331.41296Z" fill-rule="nonzero"/><path fill="#000000" fill-opacity="0.0" clip-path="url(#id_0)" d="M247.87727 331.14243C247.87727 332.7993 246.53413 334.14243 244.87727 334.14243C243.22041 334.14243 241.87727 332.7993 241.87727 331.14243C241.87727 329.48557 243.22041 328.14243 244.87727 328.14243C246.53413 328.14243 247.87727 329.48557 247.87727 331.14243Z" fill-rule="nonzero"/><path fill="#000000" fill-opacity="0.0" clip-path="url(#id_0)" d="M271.91818 330.19556C271.91818 331.85242 270.57504 333.19556 268.91818 333.19556C267.26132 333.19556 265.91818 331.85242 265.91818 330.19556C265.91818 328.5387 267.26132 327.19556 268.91818 327.19556C270.57504 327.19556 271.91818 328.5387 271.91818 330.19556Z" fill-rule="nonzero"/><path fill="#000000" fill-opacity="0.0" clip-path="url(#id_0)" d="M295.95908 329.33887C295.95908 330.99573 294.61594 332.33887 292.95908 332.33887C291.30225 332.33887 289.95908 330.99573 289.95908 329.33887C289.95908 327.682 291.30225 326.33887 292.95908 326.33887C294.61594 326.33887 295.95908 327.682 295.95908 329.33887Z" fill-rule="nonzero"/><path fill="#000000" fill-opacity="0.0" clip-path="url(#id_0)" d="M320.0 327.9411C320.0 329.59796 318.65686 330.9411 317.0 330.9411C315.34314 330.9411 314.0 329.59796 314.0 327.9411C314.0 326.28427 315.34314 324.9411 317.0 324.9411C318.65686 324.9411 320.0 326.28427 320.0 327.9411Z" fill-rule="nonzero"/><path fill="#000000" fill-opacity="0.0" clip-path="url(#id_0)" d="M344.04092 324.51434C344.04092 326.1712 342.69775 327.51434 341.04092 327.51434C339.38406 327.51434 338.04092 326.1712 338.04092 324.51434C338.04092 322.8575 339.38406 321.51434 341.04092 321.51434C342.69775 321.51434 344.04092 322.8575 344.04092 324.51434Z" fill-rule="nonzero"/><path fill="#000000" fill-opacity="0.0" clip-path="url(#id_0)" d="M368.08182 321.22287C368.08182 322.87973 366.73868 324.22287 365.08182 324.22287C363.42496 324.22287 362.08182 322.87973 362.08182 321.22287C362.08182 319.566 363.42496 318.22287 365.08182 318.22287C366.73868 318.22287 368.08182 319.566 368.08182 321.22287Z" fill-rule="nonzero"/><path fill="#000000" fill-opacity="0.0" clip-path="url(#id_0)" d="M392.12274 314.5948C392.12274 316.25165 390.77957 317.5948 389.12274 317.5948C387.46588 317.5948 386.12274 316.25165 386.12274 314.5948C386.12274 312.93796 387.46588 311.5948 389.12274 311.5948C390.77957 311.5948 392.12274 312.93796 392.12274 314.5948Z" fill-rule="nonzero"/><path fill="#000000" fill-opacity="0.0" clip-path="url(#id_0)" d="M416.16364 303.86365C416.16364 305.5205 414.8205 306.86365 413.16364 306.86365C411.50677 306.86365 410.16364 305.5205 410.16364 303.86365C410.16364 302.2068 411.50677 300.86365 413.16364 300.86365C414.8205 300.86365 416.16364 302.2068 416.16364 303.86365Z" fill-rule="nonzero"/><path fill="#000000" fill-opacity="0.0" clip-path="url(#id_0)" d="M440.20456 296.55923C440.20456 298.2161 438.8614 299.55923 437.20456 299.55923C435.5477 299.55923 434.20456 298.2161 434.20456 296.55923C434.20456 294.9024 435.5477 293.55923 437.20456 293.55923C438.8614 293.55923 440.20456 294.9024 440.20456 296.55923Z" fill-rule="nonzero"/><path fill="#000000" fill-opacity="0.0" clip-path="url(#id_0)" d="M464.24545 278.92947C464.24545 280.58633 462.9023 281.92947 461.24545 281.92947C459.5886 281.92947 458.24545 280.58633 458.24545 278.92947C458.24545 277.27264 459.5886 275.92947 461.24545 275.92947C462.9023 275.92947 464.24545 277.27264 464.24545 278.92947Z" fill-rule="nonzero"/><path fill="#000000" fill-opacity="0.0" clip-path="url(#id_0)" d="M488.28638 256.1145C488.28638 257.77136 486.9432 259.1145 485.28638 259.1145C483.62952 259.1145 482.28638 257.77136 482.28638 256.1145C482.28638 254.45766 483.62952 253.11452 485.28638 253.11452C486.9432 253.11452 488.28638 254.45766 488.28638 256.1145Z" fill-rule="nonzero"/><path fill="#000000" fill-opacity="0.0" clip-path="url(#id_0)" d="M512.3273 223.10945C512.3273 224.7663 510.98413 226.10945 509.32727 226.10945C507.6704 226.10945 506.32727 224.7663 506.32727 223.10945C506.32727 221.45259 507.6704 220.10945 509.32727 220.10945C510.98413 220.10945 512.3273 221.45259 512.3273 223.10945Z" fill-rule="nonzero"/><path fill="#000000" fill-opacity="0.0" clip-path="url(#id_0)" d="M536.36816 195.83067C536.36816 197.48752 535.025 198.83067 533.36816 198.83067C531.7113 198.83067 530.36816 197.48752 530.36816 195.83067C530.36816 194.17381 531.7113 192.83067 533.36816 192.83067C535.025 192.83067 536.36816 194.17381 536.36816 195.83067Z" fill-rule="nonzero"/><path fill="#000000" fill-opacity="0.0" clip-path="url(#id_0)" d="M560.4091 176.03665C560.4091 177.6935 559.0659 179.03665 557.4091 179.03665C555.75226 179.03665 554.4091 177.6935 554.4091 176.03665C554.4091 174.37979 555.75226 173.03665 557.4091 173.03665C559.0659 173.03665 560.4091 174.37979 560.4091 176.03665Z" fill-rule="nonzero"/><path fill="#000000" fill-opacity="0.0" clip-path="url(#id_0)" d="M584.45 89.06018C584.45 90.71703 583.1069 92.06018 581.45 92.06018C579.79315 92.06018 578.45 90.71703 578.45 89.06018C578.45 87.40332 579.79315 86.06018 581.45 86.06018C583.1069 86.06018 584.45 87.40332 584.45 89.06018Z" fill-rule="nonzero"/><path fill="#000000" d="M40.05 332.21564Q40.05 330.6844 40.3625 329.7625Q40.675 328.825 41.284374 328.325Q41.909374 327.825 42.846874 327.825Q43.534374 327.825 44.05 328.10626Q44.58125 328.3875 44.925 328.91876Q45.26875 329.4344 45.45625 330.1844Q45.64375 330.9344 45.64375 332.21564Q45.64375 333.73126 45.33125 334.65314Q45.034374 335.575 44.409374 336.09064Q43.8 336.59064 42.846874 336.59064Q41.6125 336.59064 40.89375 335.7Q40.05 334.6375 40.05 332.21564ZM41.128124 332.21564Q41.128124 334.325 41.628124 335.02814Q42.128124 335.73126 42.846874 335.73126Q43.58125 335.73126 44.065624 335.02814Q44.565624 334.325 44.565624 332.21564Q44.565624 330.09064 44.065624 329.40314Q43.58125 328.7 42.83125 328.7Q42.1125 328.7 41.675 329.3094Q41.128124 330.09064 41.128124 332.21564Z" fill-rule="nonzero"/><path fill="#000000" d="M24.596874 245.25659L24.596874 246.27222L18.909374 246.27222Q18.909374 245.89722 19.034374 245.53784Q19.253124 244.95972 19.721874 244.39722Q20.20625 243.83472 21.1125 243.10034Q22.51875 241.94409 23.003124 241.27222Q23.503124 240.60034 23.503124 240.00659Q23.503124 239.38159 23.05 238.95972Q22.596874 238.52222 21.878124 238.52222Q21.1125 238.52222 20.659374 238.97534Q20.20625 239.42847 20.190624 240.24097L19.1125 240.13159Q19.221874 238.91284 19.940624 238.28784Q20.675 237.64722 21.909374 237.64722Q23.14375 237.64722 23.8625 238.33472Q24.58125 239.02222 24.58125 240.03784Q24.58125 240.55347 24.3625 241.05347Q24.159374 241.53784 23.659374 242.10034Q23.175 242.64722 22.05 243.60034Q21.096874 244.39722 20.815624 244.69409Q20.55 244.97534 20.378124 245.25659L24.596874 245.25659ZM26.05 242.03784Q26.05 240.50659 26.3625 239.58472Q26.675 238.64722 27.284374 238.14722Q27.909374 237.64722 28.846874 237.64722Q29.534374 237.64722 30.05 237.92847Q30.58125 238.20972 30.925 238.74097Q31.26875 239.25659 31.45625 240.00659Q31.64375 240.75659 31.64375 242.03784Q31.64375 243.55347 31.33125 244.47534Q31.034374 245.39722 30.409374 245.91284Q29.8 246.41284 28.846874 246.41284Q27.6125 246.41284 26.89375 245.52222Q26.05 244.45972 26.05 242.03784ZM27.128124 242.03784Q27.128124 244.14722 27.628124 244.85034Q28.128124 245.55347 28.846874 245.55347Q29.58125 245.55347 30.065624 244.85034Q30.565624 244.14722 30.565624 242.03784Q30.565624 239.91284 30.065624 239.22534Q29.58125 238.52222 28.83125 238.52222Q28.1125 238.52222 27.675 239.13159Q27.128124 239.91284 27.128124 242.03784ZM33.05 242.03784Q33.05 240.50659 33.3625 239.58472Q33.675 238.64722 34.284374 238.14722Q34.909374 237.64722 35.846874 237.64722Q36.534374 237.64722 37.05 237.92847Q37.58125 238.20972 37.925 238.74097Q38.26875 239.25659 38.45625 240.00659Q38.64375 240.75659 38.64375 242.03784Q38.64375 243.55347 38.33125 244.47534Q38.034374 245.39722 37.409374 245.91284Q36.8 246.41284 35.846874 246.41284Q34.6125 246.41284 33.89375 245.52222Q33.05 244.45972 33.05 242.03784ZM34.128124 242.03784Q34.128124 244.14722 34.628124 244.85034Q35.128124 245.55347 35.846874 245.55347Q36.58125 245.55347 37.065624 244.85034Q37.565624 244.14722 37.565624 242.03784Q37.565624 239.91284 37.065624 239.22534Q36.58125 238.52222 35.83125 238.52222Q35.1125 238.52222 34.675 239.13159Q34.128124 239.91284 34.128124 242.03784ZM40.05 242.03784Q40.05 240.50659 40.3625 239.58472Q40.675 238.64722 41.284374 238.14722Q41.909374 237.64722 42.846874 237.64722Q43.534374 237.64722 44.05 237.92847Q44.58125 238.20972 44.925 238.74097Q45.26875 239.25659 45.45625 240.00659Q45.64375 240.75659 45.64375 242.03784Q45.64375 243.55347 45.33125 244.47534Q45.034374 245.39722 44.409374 245.91284Q43.8 246.41284 42.846874 246.41284Q41.6125 246.41284 40.89375 245.52222Q40.05 244.45972 40.05 242.03784ZM41.128124 242.03784Q41.128124 244.14722 41.628124 244.85034Q42.128124 245.55347 42.846874 245.55347Q43.58125 245.55347 44.065624 244.85034Q44.565624 244.14722 44.565624 242.03784Q44.565624 239.91284 44.065624 239.22534Q43.58125 238.52222 42.83125 238.52222Q42.1125 238.52222 41.675 239.13159Q41.128124 239.91284 41.128124 242.03784Z" fill-rule="nonzero"/><path fill="#000000" d="M22.425 156.09445L22.425 154.03195L18.70625 154.03195L18.70625 153.0632L22.628124 147.5007L23.4875 147.5007L23.4875 153.0632L24.64375 153.0632L24.64375 154.03195L23.4875 154.03195L23.4875 156.09445L22.425 156.09445ZM22.425 153.0632L22.425 149.20383L19.7375 153.0632L22.425 153.0632ZM26.05 151.86008Q26.05 150.32883 26.3625 149.40695Q26.675 148.46945 27.284374 147.96945Q27.909374 147.46945 28.846874 147.46945Q29.534374 147.46945 30.05 147.7507Q30.58125 148.03195 30.925 148.5632Q31.26875 149.07883 31.45625 149.82883Q31.64375 150.57883 31.64375 151.86008Q31.64375 153.3757 31.33125 154.29758Q31.034374 155.21945 30.409374 155.73508Q29.8 156.23508 28.846874 156.23508Q27.6125 156.23508 26.89375 155.34445Q26.05 154.28195 26.05 151.86008ZM27.128124 151.86008Q27.128124 153.96945 27.628124 154.67258Q28.128124 155.3757 28.846874 155.3757Q29.58125 155.3757 30.065624 154.67258Q30.565624 153.96945 30.565624 151.86008Q30.565624 149.73508 30.065624 149.04758Q29.58125 148.34445 28.83125 148.34445Q28.1125 148.34445 27.675 148.95383Q27.128124 149.73508 27.128124 151.86008ZM33.05 151.86008Q33.05 150.32883 33.3625 149.40695Q33.675 148.46945 34.284374 147.96945Q34.909374 147.46945 35.846874 147.46945Q36.534374 147.46945 37.05 147.7507Q37.58125 148.03195 37.925 148.5632Q38.26875 149.07883 38.45625 149.82883Q38.64375 150.57883 38.64375 151.86008Q38.64375 153.3757 38.33125 154.29758Q38.034374 155.21945 37.409374 155.73508Q36.8 156.23508 35.846874 156.23508Q34.6125 156.23508 33.89375 155.34445Q33.05 154.28195 33.05 151.86008ZM34.128124 151.86008Q34.128124 153.96945 34.628124 154.67258Q35.128124 155.3757 35.846874 155.3757Q36.58125 155.3757 37.065624 154.67258Q37.565624 153.96945 37.565624 151.86008Q37.565624 149.73508 37.065624 149.04758Q36.58125 148.34445 35.83125 148.34445Q35.1125 148.34445 34.675 148.95383Q34.128124 149.73508 34.128124 151.86008ZM40.05 151.86008Q40.05 150.32883 40.3625 149.40695Q40.675 148.46945 41.284374 147.96945Q41.909374 147.46945 42.846874 147.46945Q43.534374 147.46945 44.05 147.7507Q44.58125 148.03195 44.925 148.5632Q45.26875 149.07883 45.45625 149.82883Q45.64375 150.57883 45.64375 151.86008Q45.64375 153.3757 45.33125 154.29758Q45.034374 155.21945 44.409374 155.73508Q43.8 156.23508 42.846874 156.23508Q41.6125 156.23508 40.89375 155.34445Q40.05 154.28195 40.05 151.86008ZM41.128124 151.86008Q41.128124 153.96945 41.628124 154.67258Q42.128124 155.3757 42.846874 155.3757Q43.58125 155.3757 44.065624 154.67258Q44.565624 153.96945 44.565624 151.86008Q44.565624 149.73508 44.065624 149.04758Q43.58125 148.34445 42.83125 148.34445Q42.1125 148.34445 41.675 148.95383Q41.128124 149.73508 41.128124 151.86008Z" fill-rule="nonzero"/><path fill="#000000" d="M24.51875 59.43229L23.471874 59.510414Q23.33125 58.885414 23.08125 58.604164Q22.64375 58.15104 22.01875 58.15104Q21.51875 58.15104 21.128124 58.43229Q20.64375 58.80729 20.346874 59.510414Q20.065624 60.197914 20.05 61.479164Q20.425 60.90104 20.971874 60.61979Q21.534374 60.33854 22.14375 60.33854Q23.190624 60.33854 23.925 61.11979Q24.675 61.90104 24.675 63.11979Q24.675 63.93229 24.315624 64.635414Q23.971874 65.322914 23.3625 65.697914Q22.753124 66.05729 21.9875 66.05729Q20.659374 66.05729 19.83125 65.08854Q19.003124 64.11979 19.003124 61.90104Q19.003124 59.40104 19.925 58.27604Q20.721874 57.291664 22.08125 57.291664Q23.096874 57.291664 23.7375 57.86979Q24.39375 58.43229 24.51875 59.43229ZM20.221874 63.135414Q20.221874 63.68229 20.440624 64.18229Q20.675 64.666664 21.08125 64.93229Q21.503124 65.197914 21.971874 65.197914Q22.628124 65.197914 23.1125 64.666664Q23.596874 64.11979 23.596874 63.197914Q23.596874 62.30729 23.1125 61.791664Q22.64375 61.27604 21.925 61.27604Q21.20625 61.27604 20.70625 61.791664Q20.221874 62.30729 20.221874 63.135414ZM26.05 61.68229Q26.05 60.15104 26.3625 59.229164Q26.675 58.291664 27.284374 57.791664Q27.909374 57.291664 28.846874 57.291664Q29.534374 57.291664 30.05 57.572914Q30.58125 57.854164 30.925 58.385414Q31.26875 58.90104 31.45625 59.65104Q31.64375 60.40104 31.64375 61.68229Q31.64375 63.197914 31.33125 64.11979Q31.034374 65.041664 30.409374 65.55729Q29.8 66.05729 28.846874 66.05729Q27.6125 66.05729 26.89375 65.166664Q26.05 64.104164 26.05 61.68229ZM27.128124 61.68229Q27.128124 63.791664 27.628124 64.49479Q28.128124 65.197914 28.846874 65.197914Q29.58125 65.197914 30.065624 64.49479Q30.565624 63.791664 30.565624 61.68229Q30.565624 59.55729 30.065624 58.86979Q29.58125 58.166664 28.83125 58.166664Q28.1125 58.166664 27.675 58.77604Q27.128124 59.55729 27.128124 61.68229ZM33.05 61.68229Q33.05 60.15104 33.3625 59.229164Q33.675 58.291664 34.284374 57.791664Q34.909374 57.291664 35.846874 57.291664Q36.534374 57.291664 37.05 57.572914Q37.58125 57.854164 37.925 58.385414Q38.26875 58.90104 38.45625 59.65104Q38.64375 60.40104 38.64375 61.68229Q38.64375 63.197914 38.33125 64.11979Q38.034374 65.041664 37.409374 65.55729Q36.8 66.05729 35.846874 66.05729Q34.6125 66.05729 33.89375 65.166664Q33.05 64.104164 33.05 61.68229ZM34.128124 61.68229Q34.128124 63.791664 34.628124 64.49479Q35.128124 65.197914 35.846874 65.197914Q36.58125 65.197914 37.065624 64.49479Q37.565624 63.791664 37.565624 61.68229Q37.565624 59.55729 37.065624 58.86979Q36.58125 58.166664 35.83125 58.166664Q35.1125 58.166664 34.675 58.77604Q34.128124 59.55729 34.128124 61.68229ZM40.05 61.68229Q40.05 60.15104 40.3625 59.229164Q40.675 58.291664 41.284374 57.791664Q41.909374 57.291664 42.846874 57.291664Q43.534374 57.291664 44.05 57.572914Q44.58125 57.854164 44.925 58.385414Q45.26875 58.90104 45.45625 59.65104Q45.64375 60.40104 45.64375 61.68229Q45.64375 63.197914 45.33125 64.11979Q45.034374 65.041664 44.409374 65.55729Q43.8 66.05729 42.846874 66.05729Q41.6125 66.05729 40.89375 65.166664Q40.05 64.104164 40.05 61.68229ZM41.128124 61.68229Q41.128124 63.791664 41.628124 64.49479Q42.128124 65.197914 42.846874 65.197914Q43.58125 65.197914 44.065624 64.49479Q44.565624 63.791664 44.565624 61.68229Q44.565624 59.55729 44.065624 58.86979Q43.58125 58.166664 42.83125 58.166664Q42.1125 58.166664 41.675 58.77604Q41.128124 59.55729 41.128124 61.68229Z" fill-rule="nonzero"/><path fill="#000000" d="M140.71364 347.1844L141.77614 347.04376Q141.94801 347.9344 142.38551 348.34064Q142.82301 348.73126 143.44801 348.73126Q144.19801 348.73126 144.71364 348.21564Q145.22926 347.7 145.22926 346.9344Q145.22926 346.21564 144.74489 345.7469Q144.27614 345.2625 143.54176 345.2625Q143.24489 345.2625 142.79176 345.3875L142.91676 344.45Q143.02614 344.46564 143.08864 344.46564Q143.76051 344.46564 144.29176 344.1219Q144.83864 343.7625 144.83864 343.02814Q144.83864 342.45 144.44801 342.075Q144.05739 341.6844 143.43239 341.6844Q142.82301 341.6844 142.40114 342.075Q141.99489 342.46564 141.88551 343.23126L140.82301 343.04376Q141.01051 341.9969 141.69801 341.41876Q142.38551 340.825 143.40114 340.825Q144.10426 340.825 144.69801 341.1375Q145.29176 341.4344 145.60426 341.95Q145.91676 342.46564 145.91676 343.0594Q145.91676 343.60626 145.61989 344.075Q145.32301 344.52814 144.74489 344.79376Q145.49489 344.96564 145.91676 345.52814Q146.33864 346.075 146.33864 346.91876Q146.33864 348.04376 145.51051 348.825Q144.69801 349.60626 143.44801 349.60626Q142.32301 349.60626 141.57301 348.9344Q140.82301 348.2469 140.71364 347.1844ZM147.21364 349.59064L149.69801 340.71564L150.54176 340.71564L148.05739 349.59064L147.21364 349.59064ZM152.33864 344.79376Q151.68239 344.54376 151.35426 344.10626Q151.04176 343.65314 151.04176 343.04376Q151.04176 342.10626 151.71364 341.46564Q152.40114 340.825 153.51051 340.825Q154.63551 340.825 155.32301 341.48126Q156.01051 342.1375 156.01051 343.075Q156.01051 343.66876 155.69801 344.10626Q155.38551 344.54376 154.74489 344.79376Q155.54176 345.04376 155.94801 345.6219Q156.35426 346.2 156.35426 346.9969Q156.35426 348.09064 155.57301 348.84064Q154.80739 349.59064 153.52614 349.59064Q152.26051 349.59064 151.47926 348.84064Q150.69801 348.09064 150.69801 346.96564Q150.69801 346.1219 151.11989 345.5594Q151.55739 344.9969 152.33864 344.79376ZM152.11989 342.9969Q152.11989 343.60626 152.51051 343.9969Q152.91676 344.3875 153.54176 344.3875Q154.15114 344.3875 154.54176 344.0125Q154.93239 343.6219 154.93239 343.0594Q154.93239 342.48126 154.52614 342.09064Q154.11989 341.6844 153.52614 341.6844Q152.91676 341.6844 152.51051 342.075Q152.11989 342.46564 152.11989 342.9969ZM151.79176 346.96564Q151.79176 347.41876 151.99489 347.84064Q152.21364 348.2625 152.63551 348.4969Q153.05739 348.73126 153.54176 348.73126Q154.29176 348.73126 154.77614 348.2469Q155.27614 347.7625 155.27614 347.0125Q155.27614 346.2469 154.77614 345.7469Q154.27614 345.2469 153.51051 345.2469Q152.76051 345.2469 152.27614 345.7469Q151.79176 346.23126 151.79176 346.96564Z" fill-rule="nonzero"/><path fill="#000000" d="M305.5 347.1844L306.5625 347.04376Q306.73438 347.9344 307.17188 348.34064Q307.60938 348.73126 308.23438 348.73126Q308.98438 348.73126 309.5 348.21564Q310.01562 347.7 310.01562 346.9344Q310.01562 346.21564 309.53125 345.7469Q309.0625 345.2625 308.32812 345.2625Q308.03125 345.2625 307.57812 345.3875L307.70312 344.45Q307.8125 344.46564 307.875 344.46564Q308.54688 344.46564 309.07812 344.1219Q309.625 343.7625 309.625 343.02814Q309.625 342.45 309.23438 342.075Q308.84375 341.6844 308.21875 341.6844Q307.60938 341.6844 307.1875 342.075Q306.78125 342.46564 306.67188 343.23126L305.60938 343.04376Q305.79688 341.9969 306.48438 341.41876Q307.17188 340.825 308.1875 340.825Q308.89062 340.825 309.48438 341.1375Q310.07812 341.4344 310.39062 341.95Q310.70312 342.46564 310.70312 343.0594Q310.70312 343.60626 310.40625 344.075Q310.10938 344.52814 309.53125 344.79376Q310.28125 344.96564 310.70312 345.52814Q311.125 346.075 311.125 346.91876Q311.125 348.04376 310.29688 348.825Q309.48438 349.60626 308.23438 349.60626Q307.10938 349.60626 306.35938 348.9344Q305.60938 348.2469 305.5 347.1844ZM312.0 349.59064L314.48438 340.71564L315.32812 340.71564L312.84375 349.59064L312.0 349.59064ZM319.46875 349.45L318.42188 349.45L318.42188 342.73126Q318.03125 343.09064 317.40625 343.46564Q316.79688 343.825 316.3125 343.9969L316.3125 342.98126Q317.1875 342.5594 317.84375 341.98126Q318.51562 341.3875 318.79688 340.825L319.46875 340.825L319.46875 349.45ZM322.5 347.2L323.60938 347.10626Q323.73438 347.91876 324.17188 348.325Q324.625 348.73126 325.26562 348.73126Q326.01562 348.73126 326.54688 348.15314Q327.07812 347.575 327.07812 346.6375Q327.07812 345.73126 326.5625 345.21564Q326.0625 344.6844 325.23438 344.6844Q324.73438 344.6844 324.3125 344.91876Q323.90625 345.15314 323.67188 345.5125L322.6875 345.3875L323.51562 340.98126L327.79688 340.98126L327.79688 341.98126L324.35938 341.98126L323.90625 344.29376Q324.67188 343.7469 325.51562 343.7469Q326.64062 343.7469 327.40625 344.52814Q328.1875 345.3094 328.1875 346.54376Q328.1875 347.7 327.51562 348.5594Q326.6875 349.59064 325.26562 349.59064Q324.09375 349.59064 323.34375 348.9344Q322.60938 348.27814 322.5 347.2Z" fill-rule="nonzero"/><path fill="#000000" d="M473.78638 347.1844L474.84888 347.04376Q475.02075 347.9344 475.45825 348.34064Q475.89575 348.73126 476.52075 348.73126Q477.27075 348.73126 477.78638 348.21564Q478.302 347.7 478.302 346.9344Q478.302 346.21564 477.81763 345.7469Q477.34888 345.2625 476.6145 345.2625Q476.31763 345.2625 475.8645 345.3875L475.9895 344.45Q476.09888 344.46564 476.16138 344.46564Q476.83325 344.46564 477.3645 344.1219Q477.91138 343.7625 477.91138 343.02814Q477.91138 342.45 477.52075 342.075Q477.13013 341.6844 476.50513 341.6844Q475.89575 341.6844 475.47388 342.075Q475.06763 342.46564 474.95825 343.23126L473.89575 343.04376Q474.08325 341.9969 474.77075 341.41876Q475.45825 340.825 476.47388 340.825Q477.177 340.825 477.77075 341.1375Q478.3645 341.4344 478.677 341.95Q478.9895 342.46564 478.9895 343.0594Q478.9895 343.60626 478.69263 344.075Q478.39575 344.52814 477.81763 344.79376Q478.56763 344.96564 478.9895 345.52814Q479.41138 346.075 479.41138 346.91876Q479.41138 348.04376 478.58325 348.825Q477.77075 349.60626 476.52075 349.60626Q475.39575 349.60626 474.64575 348.9344Q473.89575 348.2469 473.78638 347.1844ZM480.28638 349.59064L482.77075 340.71564L483.6145 340.71564L481.13013 349.59064L480.28638 349.59064ZM489.33325 348.4344L489.33325 349.45L483.64575 349.45Q483.64575 349.075 483.77075 348.71564Q483.9895 348.1375 484.45825 347.575Q484.94263 347.0125 485.84888 346.27814Q487.25513 345.1219 487.7395 344.45Q488.2395 343.77814 488.2395 343.1844Q488.2395 342.5594 487.78638 342.1375Q487.33325 341.7 486.6145 341.7Q485.84888 341.7 485.39575 342.15314Q484.94263 342.60626 484.927 343.41876L483.84888 343.3094Q483.95825 342.09064 484.677 341.46564Q485.41138 340.825 486.64575 340.825Q487.88013 340.825 488.59888 341.5125Q489.31763 342.2 489.31763 343.21564Q489.31763 343.73126 489.09888 344.23126Q488.89575 344.71564 488.39575 345.27814Q487.91138 345.825 486.78638 346.77814Q485.83325 347.575 485.552 347.8719Q485.28638 348.15314 485.1145 348.4344L489.33325 348.4344ZM496.33325 348.4344L496.33325 349.45L490.64575 349.45Q490.64575 349.075 490.77075 348.71564Q490.9895 348.1375 491.45825 347.575Q491.94263 347.0125 492.84888 346.27814Q494.25513 345.1219 494.7395 344.45Q495.2395 343.77814 495.2395 343.1844Q495.2395 342.5594 494.78638 342.1375Q494.33325 341.7 493.6145 341.7Q492.84888 341.7 492.39575 342.15314Q491.94263 342.60626 491.927 343.41876L490.84888 343.3094Q490.95825 342.09064 491.677 341.46564Q492.41138 340.825 493.64575 340.825Q494.88013 340.825 495.59888 341.5125Q496.31763 342.2 496.31763 343.21564Q496.31763 343.73126 496.09888 344.23126Q495.89575 344.71564 495.39575 345.27814Q494.91138 345.825 493.78638 346.77814Q492.83325 347.575 492.552 347.8719Q492.28638 348.15314 492.1145 348.4344L496.33325 348.4344Z" fill-rule="nonzero"/><path fill="#757575" d="M20.08125 37.55L20.08125 23.2375L22.01875 23.2375L29.534374 34.471874L29.534374 23.2375L31.346874 23.2375L31.346874 37.55L29.409374 37.55L21.89375 26.3L21.89375 37.55L20.08125 37.55ZM40.971874 34.20625L42.784374 34.440624Q42.3625 36.01875 41.190624 36.909374Q40.034374 37.784374 38.221874 37.784374Q35.95625 37.784374 34.6125 36.39375Q33.284374 34.9875 33.284374 32.45625Q33.284374 29.83125 34.628124 28.39375Q35.971874 26.940624 38.128124 26.940624Q40.20625 26.940624 41.51875 28.3625Q42.846874 29.76875 42.846874 32.346874Q42.846874 32.503124 42.83125 32.815624L35.096874 32.815624Q35.190624 34.51875 36.065624 35.425Q36.940624 36.33125 38.2375 36.33125Q39.20625 36.33125 39.878124 35.83125Q40.565624 35.315624 40.971874 34.20625ZM35.190624 31.3625L40.9875 31.3625Q40.878124 30.065624 40.33125 29.409374Q39.4875 28.39375 38.14375 28.39375Q36.940624 28.39375 36.1125 29.20625Q35.284374 30.003124 35.190624 31.3625ZM46.784374 37.55L43.6125 27.175L45.425 27.175L47.08125 33.159374L47.690624 35.39375Q47.7375 35.221874 48.221874 33.253124L49.878124 27.175L51.690624 27.175L53.2375 33.190624L53.753124 35.175L54.346874 33.175L56.128124 27.175L57.83125 27.175L54.596874 37.55L52.76875 37.55L51.1125 31.33125L50.721874 29.565624L48.6125 37.55L46.784374 37.55ZM64.12813 33.4875L65.83125 33.253124Q65.90938 34.89375 66.45625 35.503124Q67.00313 36.096874 67.97188 36.096874Q68.675 36.096874 69.19063 35.784374Q69.70625 35.45625 69.89375 34.89375Q70.09688 34.33125 70.09688 33.096874L70.09688 23.2375L72.00313 23.2375L72.00313 32.9875Q72.00313 34.784374 71.56563 35.76875Q71.12813 36.753124 70.175 37.284374Q69.2375 37.8 67.97188 37.8Q66.09688 37.8 65.08125 36.721874Q64.08125 35.628124 64.12813 33.4875ZM81.97188 34.20625L83.78438 34.440624Q83.3625 36.01875 82.19063 36.909374Q81.03438 37.784374 79.22188 37.784374Q76.95625 37.784374 75.6125 36.39375Q74.28438 34.9875 74.28438 32.45625Q74.28438 29.83125 75.62813 28.39375Q76.97188 26.940624 79.12813 26.940624Q81.20625 26.940624 82.51875 28.3625Q83.84688 29.76875 83.84688 32.346874Q83.84688 32.503124 83.83125 32.815624L76.09688 32.815624Q76.19063 34.51875 77.06563 35.425Q77.94063 36.33125 79.2375 36.33125Q80.20625 36.33125 80.87813 35.83125Q81.56563 35.315624 81.97188 34.20625ZM76.19063 31.3625L81.9875 31.3625Q81.87813 30.065624 81.33125 29.409374Q80.4875 28.39375 79.14375 28.39375Q77.94063 28.39375 77.1125 29.20625Q76.28438 30.003124 76.19063 31.3625ZM85.84688 37.55L85.84688 27.175L87.425 27.175L87.425 28.753124Q88.03438 27.64375 88.55 27.3Q89.06563 26.940624 89.675 26.940624Q90.56563 26.940624 91.4875 27.503124L90.87813 29.14375Q90.2375 28.753124 89.59688 28.753124Q89.01875 28.753124 88.55 29.1125Q88.09688 29.45625 87.89375 30.065624Q87.6125 31.003124 87.6125 32.1125L87.6125 37.55L85.84688 37.55ZM92.15938 34.45625L93.90938 34.175Q94.05 35.221874 94.72188 35.784374Q95.39375 36.33125 96.59688 36.33125Q97.8 36.33125 98.37813 35.846874Q98.97188 35.346874 98.97188 34.690624Q98.97188 34.096874 98.45625 33.753124Q98.09688 33.51875 96.65938 33.159374Q94.72188 32.659374 93.97188 32.315624Q93.2375 31.95625 92.84688 31.33125Q92.45625 30.690624 92.45625 29.925Q92.45625 29.2375 92.76875 28.64375Q93.09688 28.05 93.64375 27.659374Q94.05 27.3625 94.75313 27.159374Q95.47188 26.940624 96.28438 26.940624Q97.50313 26.940624 98.425 27.3Q99.34688 27.64375 99.78438 28.253124Q100.22188 28.846874 100.39375 29.846874L98.675 30.08125Q98.55 29.284374 97.9875 28.846874Q97.425 28.39375 96.40938 28.39375Q95.19063 28.39375 94.675 28.8Q94.15938 29.190624 94.15938 29.721874Q94.15938 30.065624 94.37813 30.346874Q94.58125 30.628124 95.05 30.815624Q95.31563 30.909374 96.59688 31.253124Q98.47188 31.753124 99.20625 32.08125Q99.94063 32.39375 100.3625 33.003124Q100.78438 33.596874 100.78438 34.503124Q100.78438 35.378124 100.26875 36.159374Q99.75313 36.940624 98.78438 37.3625Q97.81563 37.784374 96.59688 37.784374Q94.58125 37.784374 93.51875 36.940624Q92.45625 36.096874 92.15938 34.45625ZM109.97188 34.20625L111.78438 34.440624Q111.3625 36.01875 110.19063 36.909374Q109.03438 37.784374 107.22188 37.784374Q104.95625 37.784374 103.6125 36.39375Q102.28438 34.9875 102.28438 32.45625Q102.28438 29.83125 103.62813 28.39375Q104.97188 26.940624 107.12813 26.940624Q109.20625 26.940624 110.51875 28.3625Q111.84688 29.76875 111.84688 32.346874Q111.84688 32.503124 111.83125 32.815624L104.09688 32.815624Q104.19063 34.51875 105.06563 35.425Q105.94063 36.33125 107.2375 36.33125Q108.20625 36.33125 108.87813 35.83125Q109.56563 35.315624 109.97188 34.20625ZM104.19063 31.3625L109.9875 31.3625Q109.87813 30.065624 109.33125 29.409374Q108.4875 28.39375 107.14375 28.39375Q105.94063 28.39375 105.1125 29.20625Q104.28438 30.003124 104.19063 31.3625ZM113.78438 41.55L113.59688 39.89375Q114.175 40.05 114.59688 40.05Q115.19063 40.05 115.53438 39.846874Q115.89375 39.659374 116.1125 39.315624Q116.28438 39.05 116.65938 38.003124Q116.70625 37.846874 116.81563 37.565624L112.87813 27.175L114.76875 27.175L116.925 33.190624Q117.34688 34.33125 117.675 35.58125Q117.9875 34.378124 118.39375 33.221874L120.6125 27.175L122.37813 27.175L118.425 37.721874Q117.8 39.440624 117.44063 40.08125Q116.97188 40.95625 116.3625 41.346874Q115.76875 41.753124 114.925 41.753124Q114.40938 41.753124 113.78438 41.55ZM140.31563 32.534374L142.20625 33.003124Q141.6125 35.346874 140.06563 36.58125Q138.51875 37.8 136.26875 37.8Q133.95625 37.8 132.50313 36.8625Q131.06563 35.909374 130.3 34.128124Q129.55 32.33125 129.55 30.284374Q129.55 28.05 130.39375 26.39375Q131.25313 24.721874 132.83125 23.8625Q134.40938 22.9875 136.3 22.9875Q138.45625 22.9875 139.90938 24.08125Q141.37813 25.175 141.95625 27.159374L140.09688 27.596874Q139.59688 26.034374 138.64375 25.33125Q137.70625 24.6125 136.26875 24.6125Q134.6125 24.6125 133.50313 25.409374Q132.39375 26.190624 131.94063 27.534374Q131.50313 28.8625 131.50313 30.26875Q131.50313 32.096874 132.03438 33.471874Q132.56563 34.83125 133.69063 35.503124Q134.81563 36.175 136.1125 36.175Q137.70625 36.175 138.81563 35.253124Q139.925 34.33125 140.31563 32.534374ZM150.64375 36.26875Q149.65938 37.096874 148.75313 37.440624Q147.84688 37.784374 146.81563 37.784374Q145.1125 37.784374 144.19063 36.95625Q143.26875 36.1125 143.26875 34.815624Q143.26875 34.05 143.6125 33.425Q143.97188 32.8 144.53438 32.425Q145.09688 32.034374 145.8 31.83125Q146.31563 31.70625 147.3625 31.565624Q149.4875 31.315624 150.4875 30.971874Q150.50313 30.6125 150.50313 30.503124Q150.50313 29.440624 150.00313 28.9875Q149.33125 28.39375 148.00313 28.39375Q146.75313 28.39375 146.15938 28.83125Q145.58125 29.26875 145.3 30.378124L143.58125 30.14375Q143.81563 29.034374 144.34688 28.3625Q144.87813 27.675 145.89375 27.315624Q146.90938 26.940624 148.25313 26.940624Q149.58125 26.940624 150.40938 27.253124Q151.2375 27.565624 151.62813 28.05Q152.01875 28.51875 152.175 29.2375Q152.26875 29.690624 152.26875 30.8625L152.26875 33.20625Q152.26875 35.659374 152.37813 36.315624Q152.4875 36.95625 152.83125 37.55L150.9875 37.55Q150.72188 37.003124 150.64375 36.26875ZM150.4875 32.346874Q149.53438 32.7375 147.6125 33.003124Q146.53438 33.159374 146.08125 33.3625Q145.64375 33.55 145.39375 33.925Q145.14375 34.3 145.14375 34.76875Q145.14375 35.471874 145.675 35.940624Q146.20625 36.409374 147.2375 36.409374Q148.25313 36.409374 149.03438 35.971874Q149.83125 35.51875 150.20625 34.753124Q150.4875 34.14375 150.4875 32.9875L150.4875 32.346874ZM154.15938 34.45625L155.90938 34.175Q156.05 35.221874 156.72188 35.784374Q157.39375 36.33125 158.59688 36.33125Q159.8 36.33125 160.37813 35.846874Q160.97188 35.346874 160.97188 34.690624Q160.97188 34.096874 160.45625 33.753124Q160.09688 33.51875 158.65938 33.159374Q156.72188 32.659374 155.97188 32.315624Q155.2375 31.95625 154.84688 31.33125Q154.45625 30.690624 154.45625 29.925Q154.45625 29.2375 154.76875 28.64375Q155.09688 28.05 155.64375 27.659374Q156.05 27.3625 156.75313 27.159374Q157.47188 26.940624 158.28438 26.940624Q159.50313 26.940624 160.425 27.3Q161.34688 27.64375 161.78438 28.253124Q162.22188 28.846874 162.39375 29.846874L160.675 30.08125Q160.55 29.284374 159.9875 28.846874Q159.425 28.39375 158.40938 28.39375Q157.19063 28.39375 156.675 28.8Q156.15938 29.190624 156.15938 29.721874Q156.15938 30.065624 156.37813 30.346874Q156.58125 30.628124 157.05 30.815624Q157.31563 30.909374 158.59688 31.253124Q160.47188 31.753124 161.20625 32.08125Q161.94063 32.39375 162.3625 33.003124Q162.78438 33.596874 162.78438 34.503124Q162.78438 35.378124 162.26875 36.159374Q161.75313 36.940624 160.78438 37.3625Q159.81563 37.784374 158.59688 37.784374Q156.58125 37.784374 155.51875 36.940624Q154.45625 36.096874 154.15938 34.45625ZM171.97188 34.20625L173.78438 34.440624Q173.3625 36.01875 172.19063 36.909374Q171.03438 37.784374 169.22188 37.784374Q166.95625 37.784374 165.6125 36.39375Q164.28438 34.9875 164.28438 32.45625Q164.28438 29.83125 165.62813 28.39375Q166.97188 26.940624 169.12813 26.940624Q171.20625 26.940624 172.51875 28.3625Q173.84688 29.76875 173.84688 32.346874Q173.84688 32.503124 173.83125 32.815624L166.09688 32.815624Q166.19063 34.51875 167.06563 35.425Q167.94063 36.33125 169.2375 36.33125Q170.20625 36.33125 170.87813 35.83125Q171.56563 35.315624 171.97188 34.20625ZM166.19063 31.3625L171.9875 31.3625Q171.87813 30.065624 171.33125 29.409374Q170.4875 28.39375 169.14375 28.39375Q167.94063 28.39375 167.1125 29.20625Q166.28438 30.003124 166.19063 31.3625ZM175.15938 34.45625L176.90938 34.175Q177.05 35.221874 177.72188 35.784374Q178.39375 36.33125 179.59688 36.33125Q180.8 36.33125 181.37813 35.846874Q181.97188 35.346874 181.97188 34.690624Q181.97188 34.096874 181.45625 33.753124Q181.09688 33.51875 179.65938 33.159374Q177.72188 32.659374 176.97188 32.315624Q176.2375 31.95625 175.84688 31.33125Q175.45625 30.690624 175.45625 29.925Q175.45625 29.2375 175.76875 28.64375Q176.09688 28.05 176.64375 27.659374Q177.05 27.3625 177.75313 27.159374Q178.47188 26.940624 179.28438 26.940624Q180.50313 26.940624 181.425 27.3Q182.34688 27.64375 182.78438 28.253124Q183.22188 28.846874 183.39375 29.846874L181.675 30.08125Q181.55 29.284374 180.9875 28.846874Q180.425 28.39375 179.40938 28.39375Q178.19063 28.39375 177.675 28.8Q177.15938 29.190624 177.15938 29.721874Q177.15938 30.065624 177.37813 30.346874Q177.58125 30.628124 178.05 30.815624Q178.31563 30.909374 179.59688 31.253124Q181.47188 31.753124 182.20625 32.08125Q182.94063 32.39375 183.3625 33.003124Q183.78438 33.596874 183.78438 34.503124Q183.78438 35.378124 183.26875 36.159374Q182.75313 36.940624 181.78438 37.3625Q180.81563 37.784374 179.59688 37.784374Q177.58125 37.784374 176.51875 36.940624Q175.45625 36.096874 175.15938 34.45625ZM191.51875 30.58125Q191.51875 27.01875 193.425 25.003124Q195.34688 22.971874 198.37813 22.971874Q200.3625 22.971874 201.94063 23.925Q203.53438 24.878124 204.3625 26.58125Q205.20625 28.26875 205.20625 30.409374Q205.20625 32.58125 204.33125 34.3Q203.45625 36.01875 201.83125 36.909374Q200.22188 37.8 198.3625 37.8Q196.34688 37.8 194.75313 36.83125Q193.15938 35.846874 192.33125 34.159374Q191.51875 32.45625 191.51875 30.58125ZM193.47188 30.6125Q193.47188 33.190624 194.8625 34.690624Q196.25313 36.175 198.34688 36.175Q200.4875 36.175 201.8625 34.675Q203.25313 33.159374 203.25313 30.39375Q203.25313 28.659374 202.65938 27.3625Q202.08125 26.05 200.94063 25.33125Q199.8 24.6125 198.37813 24.6125Q196.37813 24.6125 194.925 26.003124Q193.47188 27.378124 193.47188 30.6125ZM210.75313 37.55L206.8 27.175L208.65938 27.175L210.89375 33.39375Q211.25313 34.39375 211.55 35.471874Q211.78438 34.659374 212.20625 33.503124L214.50313 27.175L216.31563 27.175L212.39375 37.55L210.75313 37.55ZM224.97188 34.20625L226.78438 34.440624Q226.3625 36.01875 225.19063 36.909374Q224.03438 37.784374 222.22188 37.784374Q219.95625 37.784374 218.6125 36.39375Q217.28438 34.9875 217.28438 32.45625Q217.28438 29.83125 218.62813 28.39375Q219.97188 26.940624 222.12813 26.940624Q224.20625 26.940624 225.51875 28.3625Q226.84688 29.76875 226.84688 32.346874Q226.84688 32.503124 226.83125 32.815624L219.09688 32.815624Q219.19063 34.51875 220.06563 35.425Q220.94063 36.33125 222.2375 36.33125Q223.20625 36.33125 223.87813 35.83125Q224.56563 35.315624 224.97188 34.20625ZM219.19063 31.3625L224.9875 31.3625Q224.87813 30.065624 224.33125 29.409374Q223.4875 28.39375 222.14375 28.39375Q220.94063 28.39375 220.1125 29.20625Q219.28438 30.003124 219.19063 31.3625ZM228.84688 37.55L228.84688 27.175L230.425 27.175L230.425 28.753124Q231.03438 27.64375 231.55 27.3Q232.06563 26.940624 232.675 26.940624Q233.56563 26.940624 234.4875 27.503124L233.87813 29.14375Q233.2375 28.753124 232.59688 28.753124Q232.01875 28.753124 231.55 29.1125Q231.09688 29.45625 230.89375 30.065624Q230.6125 31.003124 230.6125 32.1125L230.6125 37.55L228.84688 37.55ZM245.7375 37.55L245.7375 24.925L241.01875 24.925L241.01875 23.2375L252.3625 23.2375L252.3625 24.925L247.62813 24.925L247.62813 37.55L245.7375 37.55ZM253.87813 25.253124L253.87813 23.2375L255.64375 23.2375L255.64375 25.253124L253.87813 25.253124ZM253.87813 37.55L253.87813 27.175L255.64375 27.175L255.64375 37.55L253.87813 37.55ZM257.8625 37.55L257.8625 27.175L259.4406 27.175L259.4406 28.628124Q259.925 27.878124 260.7375 27.409374Q261.55 26.940624 262.58124 26.940624Q263.7375 26.940624 264.47186 27.425Q265.20624 27.89375 265.51874 28.753124Q266.7531 26.940624 268.72186 26.940624Q270.26874 26.940624 271.09686 27.8Q271.925 28.659374 271.925 30.425L271.925 37.55L270.175 37.55L270.175 31.01875Q270.175 29.95625 270.0031 29.503124Q269.83124 29.034374 269.3781 28.753124Q268.9406 28.471874 268.33124 28.471874Q267.2375 28.471874 266.5031 29.20625Q265.78436 29.925 265.78436 31.51875L265.78436 37.55L264.03436 37.55L264.03436 30.815624Q264.03436 29.64375 263.59686 29.065624Q263.175 28.471874 262.1906 28.471874Q261.45624 28.471874 260.8156 28.8625Q260.1906 29.253124 259.90936 30.003124Q259.6281 30.753124 259.6281 32.175L259.6281 37.55L257.8625 37.55ZM281.97186 34.20625L283.78436 34.440624Q283.3625 36.01875 282.1906 36.909374Q281.03436 37.784374 279.22186 37.784374Q276.95624 37.784374 275.6125 36.39375Q274.28436 34.9875 274.28436 32.45625Q274.28436 29.83125 275.6281 28.39375Q276.97186 26.940624 279.1281 26.940624Q281.20624 26.940624 282.51874 28.3625Q283.84686 29.76875 283.84686 32.346874Q283.84686 32.503124 283.83124 32.815624L276.09686 32.815624Q276.1906 34.51875 277.0656 35.425Q277.9406 36.33125 279.2375 36.33125Q280.20624 36.33125 280.8781 35.83125Q281.5656 35.315624 281.97186 34.20625ZM276.1906 31.3625L281.9875 31.3625Q281.8781 30.065624 281.33124 29.409374Q280.4875 28.39375 279.14374 28.39375Q277.9406 28.39375 277.1125 29.20625Q276.28436 30.003124 276.1906 31.3625Z" fill-rule="nonzero"/></svg>
