<svg version="1.1" viewBox="0.0 0.0 600.0 371.0" fill="none" stroke="none" stroke-linecap="square" stroke-miterlimit="10" width="600" height="371" xmlns:xlink="http://www.w3.org/1999/xlink" xmlns="http://www.w3.org/2000/svg"><path fill="#ffffff" d="M0 0L600.0 0L600.0 371.0L0 371.0L0 0Z" fill-rule="nonzero"/><path stroke="#cccccc" stroke-width="1.0" stroke-linecap="butt" d="M146.5 62.5L146.5 331.5" fill-rule="nonzero"/><path stroke="#cccccc" stroke-width="1.0" stroke-linecap="butt" d="M298.5 62.5L298.5 331.5" fill-rule="nonzero"/><path stroke="#cccccc" stroke-width="1.0" stroke-linecap="butt" d="M450.5 62.5L450.5 331.5" fill-rule="nonzero"/><path stroke="#333333" stroke-width="1.0" stroke-linecap="butt" d="M59.5 331.5L581.5 331.5" fill-rule="nonzero"/><path stroke="#cccccc" stroke-width="1.0" stroke-linecap="butt" d="M59.5 277.5L581.5 277.5" fill-rule="nonzero"/><path stroke="#cccccc" stroke-width="1.0" stroke-linecap="butt" d="M59.5 223.5L581.5 223.5" fill-rule="nonzero"/><path stroke="#cccccc" stroke-width="1.0" stroke-linecap="butt" d="M59.5 170.5L581.5 170.5" fill-rule="nonzero"/><path stroke="#cccccc" stroke-width="1.0" stroke-linecap="butt" d="M59.5 116.5L581.5 116.5" fill-rule="nonzero"/><path stroke="#cccccc" stroke-width="1.0" stroke-linecap="butt" d="M59.5 62.5L581.5 62.5" fill-rule="nonzero"/><clipPath id="id_0"><path d="M59.55 62.416668L581.45 62.416668L581.45 331.45L59.55 331.45L59.55 62.416668Z" clip-rule="nonzero"/></clipPath><path stroke="#ff8f00" stroke-width="4.0" stroke-linecap="butt" clip-path="url(#id_0)" d="M59.55 331.45L81.29583 331.42847L103.041664 331.42847L124.7875 331.36392L146.53334 331.32086L168.27916 331.21326L190.025 331.12717L211.77083 330.93344L233.51666 330.80432L255.2625 330.37387L277.00833 329.96494L298.75418 329.3408L320.5 327.61896L342.24582 325.70346L363.99167 322.25983L385.7375 315.4802L407.48334 312.29483L429.22916 302.88943L450.975 290.2556L472.72083 270.23953L494.46667 252.3542L516.2125 236.70721L537.9583 183.46014L559.70416 141.51247L581.45 92.03185" fill-rule="nonzero"/><path fill="#ff8f00" clip-path="url(#id_0)" d="M59.55 331.45C59.55 331.45 59.55 331.45 59.55 331.45C59.55 331.45 59.55 331.45 59.55 331.45C59.55 331.45 59.55 331.45 59.55 331.45C59.55 331.45 59.55 331.45 59.55 331.45Z" fill-rule="nonzero"/><path fill="#ff8f00" clip-path="url(#id_0)" d="M81.29583 331.42847C81.29583 331.42847 81.29583 331.42847 81.29583 331.42847C81.29583 331.42847 81.29583 331.42847 81.29583 331.42847C81.29583 331.42847 81.29583 331.42847 81.29583 331.42847C81.29583 331.42847 81.29583 331.42847 81.29583 331.42847Z" fill-rule="nonzero"/><path fill="#ff8f00" clip-path="url(#id_0)" d="M103.041664 331.42847C103.041664 331.42847 103.041664 331.42847 103.041664 331.42847C103.041664 331.42847 103.041664 331.42847 103.041664 331.42847C103.041664 331.42847 103.041664 331.42847 103.041664 331.42847C103.041664 331.42847 103.041664 331.42847 103.041664 331.42847Z" fill-rule="nonzero"/><path fill="#ff8f00" clip-path="url(#id_0)" d="M124.7875 331.36392C124.7875 331.36392 124.7875 331.36392 124.7875 331.36392C124.7875 331.36392 124.7875 331.36392 124.7875 331.36392C124.7875 331.36392 124.7875 331.36392 124.7875 331.36392C124.7875 331.36392 124.7875 331.36392 124.7875 331.36392Z" fill-rule="nonzero"/><path fill="#ff8f00" clip-path="url(#id_0)" d="M146.53334 331.32086C146.53334 331.32086 146.53334 331.32086 146.53334 331.32086C146.53334 331.32086 146.53334 331.32086 146.53334 331.32086C146.53334 331.32086 146.53334 331.32086 146.53334 331.32086C146.53334 331.32086 146.53334 331.32086 146.53334 331.32086Z" fill-rule="nonzero"/><path fill="#ff8f00" clip-path="url(#id_0)" d="M168.27916 331.21326C168.27916 331.21326 168.27916 331.21326 168.27916 331.21326C168.27916 331.21326 168.27916 331.21326 168.27916 331.21326C168.27916 331.21326 168.27916 331.21326 168.27916 331.21326C168.27916 331.21326 168.27916 331.21326 168.27916 331.21326Z" fill-rule="nonzero"/><path fill="#ff8f00" clip-path="url(#id_0)" d="M190.025 331.12717C190.025 331.12717 190.025 331.12717 190.025 331.12717C190.025 331.12717 190.025 331.12717 190.025 331.12717C190.025 331.12717 190.025 331.12717 190.025 331.12717C190.025 331.12717 190.025 331.12717 190.025 331.12717Z" fill-rule="nonzero"/><path fill="#ff8f00" clip-path="url(#id_0)" d="M211.77083 330.93344C211.77083 330.93344 211.77083 330.93344 211.77083 330.93344C211.77083 330.93344 211.77083 330.93344 211.77083 330.93344C211.77083 330.93344 211.77083 330.93344 211.77083 330.93344C211.77083 330.93344 211.77083 330.93344 211.77083 330.93344Z" fill-rule="nonzero"/><path fill="#ff8f00" clip-path="url(#id_0)" d="M233.51666 330.80432C233.51666 330.80432 233.51666 330.80432 233.51666 330.80432C233.51666 330.80432 233.51666 330.80432 233.51666 330.80432C233.51666 330.80432 233.51666 330.80432 233.51666 330.80432C233.51666 330.80432 233.51666 330.80432 233.51666 330.80432Z" fill-rule="nonzero"/><path fill="#ff8f00" clip-path="url(#id_0)" d="M255.2625 330.37387C255.2625 330.37387 255.2625 330.37387 255.2625 330.37387C255.2625 330.37387 255.2625 330.37387 255.2625 330.37387C255.2625 330.37387 255.2625 330.37387 255.2625 330.37387C255.2625 330.37387 255.2625 330.37387 255.2625 330.37387Z" fill-rule="nonzero"/><path fill="#ff8f00" clip-path="url(#id_0)" d="M277.00833 329.96494C277.00833 329.96494 277.00833 329.96494 277.00833 329.96494C277.00833 329.96494 277.00833 329.96494 277.00833 329.96494C277.00833 329.96494 277.00833 329.96494 277.00833 329.96494C277.00833 329.96494 277.00833 329.96494 277.00833 329.96494Z" fill-rule="nonzero"/><path fill="#ff8f00" clip-path="url(#id_0)" d="M298.75418 329.3408C298.75418 329.3408 298.75418 329.3408 298.75418 329.3408C298.75418 329.3408 298.75418 329.3408 298.75418 329.3408C298.75418 329.3408 298.75418 329.3408 298.75418 329.3408C298.75418 329.3408 298.75418 329.3408 298.75418 329.3408Z" fill-rule="nonzero"/><path fill="#ff8f00" clip-path="url(#id_0)" d="M320.5 327.61896C320.5 327.61896 320.5 327.61896 320.5 327.61896C320.5 327.61896 320.5 327.61896 320.5 327.61896C320.5 327.61896 320.5 327.61896 320.5 327.61896C320.5 327.61896 320.5 327.61896 320.5 327.61896Z" fill-rule="nonzero"/><path fill="#ff8f00" clip-path="url(#id_0)" d="M342.24582 325.70346C342.24582 325.70346 342.24582 325.70346 342.24582 325.70346C342.24582 325.70346 342.24582 325.70346 342.24582 325.70346C342.24582 325.70346 342.24582 325.70346 342.24582 325.70346C342.24582 325.70346 342.24582 325.70346 342.24582 325.70346Z" fill-rule="nonzero"/><path fill="#ff8f00" clip-path="url(#id_0)" d="M363.99167 322.25983C363.99167 322.25983 363.99167 322.25983 363.99167 322.25983C363.99167 322.25983 363.99167 322.25983 363.99167 322.25983C363.99167 322.25983 363.99167 322.25983 363.99167 322.25983C363.99167 322.25983 363.99167 322.25983 363.99167 322.25983Z" fill-rule="nonzero"/><path fill="#ff8f00" clip-path="url(#id_0)" d="M385.7375 315.4802C385.7375 315.4802 385.7375 315.4802 385.7375 315.4802C385.7375 315.4802 385.7375 315.4802 385.7375 315.4802C385.7375 315.4802 385.7375 315.4802 385.7375 315.4802C385.7375 315.4802 385.7375 315.4802 385.7375 315.4802Z" fill-rule="nonzero"/><path fill="#ff8f00" clip-path="url(#id_0)" d="M407.48334 312.29483C407.48334 312.29483 407.48334 312.29483 407.48334 312.29483C407.48334 312.29483 407.48334 312.29483 407.48334 312.29483C407.48334 312.29483 407.48334 312.29483 407.48334 312.29483C407.48334 312.29483 407.48334 312.29483 407.48334 312.29483Z" fill-rule="nonzero"/><path fill="#ff8f00" clip-path="url(#id_0)" d="M429.22916 302.88943C429.22916 302.88943 429.22916 302.88943 429.22916 302.88943C429.22916 302.88943 429.22916 302.88943 429.22916 302.88943C429.22916 302.88943 429.22916 302.88943 429.22916 302.88943C429.22916 302.88943 429.22916 302.88943 429.22916 302.88943Z" fill-rule="nonzero"/><path fill="#ff8f00" clip-path="url(#id_0)" d="M450.975 290.2556C450.975 290.2556 450.975 290.2556 450.975 290.2556C450.975 290.2556 450.975 290.2556 450.975 290.2556C450.975 290.2556 450.975 290.2556 450.975 290.2556C450.975 290.2556 450.975 290.2556 450.975 290.2556Z" fill-rule="nonzero"/><path fill="#ff8f00" clip-path="url(#id_0)" d="M472.72083 270.23953C472.72083 270.23953 472.72083 270.23953 472.72083 270.23953C472.72083 270.23953 472.72083 270.23953 472.72083 270.23953C472.72083 270.23953 472.72083 270.23953 472.72083 270.23953C472.72083 270.23953 472.72083 270.23953 472.72083 270.23953Z" fill-rule="nonzero"/><path fill="#ff8f00" clip-path="url(#id_0)" d="M494.46667 252.3542C494.46667 252.3542 494.46667 252.3542 494.46667 252.3542C494.46667 252.3542 494.46667 252.3542 494.46667 252.3542C494.46667 252.3542 494.46667 252.3542 494.46667 252.3542C494.46667 252.3542 494.46667 252.3542 494.46667 252.3542Z" fill-rule="nonzero"/><path fill="#ff8f00" clip-path="url(#id_0)" d="M516.2125 236.70721C516.2125 236.70721 516.2125 236.70721 516.2125 236.70721C516.2125 236.70721 516.2125 236.70721 516.2125 236.70721C516.2125 236.70721 516.2125 236.70721 516.2125 236.70721C516.2125 236.70721 516.2125 236.70721 516.2125 236.70721Z" fill-rule="nonzero"/><path fill="#ff8f00" clip-path="url(#id_0)" d="M537.9583 183.46014C537.9583 183.46014 537.9583 183.46014 537.9583 183.46014C537.9583 183.46014 537.9583 183.46014 537.9583 183.46014C537.9583 183.46014 537.9583 183.46014 537.9583 183.46014C537.9583 183.46014 537.9583 183.46014 537.9583 183.46014Z" fill-rule="nonzero"/><path fill="#ff8f00" clip-path="url(#id_0)" d="M559.70416 141.51247C559.70416 141.51247 559.70416 141.51247 559.70416 141.51247C559.70416 141.51247 559.70416 141.51247 559.70416 141.51247C559.70416 141.51247 559.70416 141.51247 559.70416 141.51247C559.70416 141.51247 559.70416 141.51247 559.70416 141.51247Z" fill-rule="nonzero"/><path fill="#ff8f00" clip-path="url(#id_0)" d="M581.45 92.03185C581.45 92.03185 581.45 92.03185 581.45 92.03185C581.45 92.03185 581.45 92.03185 581.45 92.03185C581.45 92.03185 581.45 92.03185 581.45 92.03185C581.45 92.03185 581.45 92.03185 581.45 92.03185Z" fill-rule="nonzero"/><path fill="#000000" d="M52.6125 332.3094Q52.6125 334.21564 51.95625 335.15314Q51.315624 336.075 49.925 336.075Q48.565624 336.075 47.909374 335.16876Q47.253124 334.2625 47.221874 332.45L47.221874 331.0125Q47.221874 329.1219 47.8625 328.21564Q48.51875 327.29376 49.909374 327.29376Q51.284374 327.29376 51.940624 328.1844Q52.596874 329.0594 52.6125 330.90314L52.6125 332.3094ZM51.51875 330.825Q51.51875 329.45 51.128124 328.825Q50.753124 328.1844 49.909374 328.1844Q49.08125 328.1844 48.690624 328.825Q48.315624 329.45 48.315624 330.7469L48.315624 332.48126Q48.315624 333.85626 48.70625 334.52814Q49.1125 335.1844 49.925 335.1844Q50.721874 335.1844 51.1125 334.5594Q51.503124 333.9344 51.51875 332.60626L51.51875 330.825Z" fill-rule="nonzero"/><path fill="#000000" d="M31.846874 282.14334L26.253124 282.14334L26.253124 281.3621L29.20625 278.08084Q29.8625 277.33084 30.1125 276.87772Q30.3625 276.40897 30.3625 275.90897Q30.3625 275.2371 29.95625 274.81522Q29.565624 274.37772 28.878124 274.37772Q28.08125 274.37772 27.628124 274.84647Q27.175 275.2996 27.175 276.12772L26.096874 276.12772Q26.096874 274.94022 26.846874 274.22147Q27.6125 273.4871 28.878124 273.4871Q30.08125 273.4871 30.76875 274.1121Q31.45625 274.7371 31.45625 275.78397Q31.45625 277.03397 29.846874 278.78397L27.565624 281.25272L31.846874 281.25272L31.846874 282.14334ZM33.753124 277.8621L34.190624 273.6121L38.565624 273.6121L38.565624 274.6121L35.1125 274.6121L34.846874 276.94022Q35.4875 276.56522 36.284374 276.56522Q37.440624 276.56522 38.128124 277.34647Q38.815624 278.1121 38.815624 279.4246Q38.815624 280.7371 38.096874 281.50272Q37.39375 282.26834 36.1125 282.26834Q34.9875 282.26834 34.26875 281.64334Q33.55 281.00272 33.45625 279.89334L34.471874 279.89334Q34.58125 280.62772 35.003124 281.00272Q35.425 281.37772 36.1125 281.37772Q36.8625 281.37772 37.3 280.8621Q37.7375 280.34647 37.7375 279.44022Q37.7375 278.58084 37.26875 278.06522Q36.8 277.5496 36.01875 277.5496Q35.315624 277.5496 34.909374 277.84647L34.628124 278.08084L33.753124 277.8621ZM45.6125 278.50272Q45.6125 280.40897 44.95625 281.34647Q44.315624 282.26834 42.925 282.26834Q41.565624 282.26834 40.909374 281.3621Q40.253124 280.45584 40.221874 278.64334L40.221874 277.20584Q40.221874 275.31522 40.8625 274.40897Q41.51875 273.4871 42.909374 273.4871Q44.284374 273.4871 44.940624 274.37772Q45.596874 275.25272 45.6125 277.09647L45.6125 278.50272ZM44.51875 277.01834Q44.51875 275.64334 44.128124 275.01834Q43.753124 274.37772 42.909374 274.37772Q42.08125 274.37772 41.690624 275.01834Q41.315624 275.64334 41.315624 276.94022L41.315624 278.6746Q41.315624 280.0496 41.70625 280.72147Q42.1125 281.37772 42.925 281.37772Q43.721874 281.37772 44.1125 280.75272Q44.503124 280.12772 44.51875 278.7996L44.51875 277.01834ZM52.6125 278.50272Q52.6125 280.40897 51.95625 281.34647Q51.315624 282.26834 49.925 282.26834Q48.565624 282.26834 47.909374 281.3621Q47.253124 280.45584 47.221874 278.64334L47.221874 277.20584Q47.221874 275.31522 47.8625 274.40897Q48.51875 273.4871 49.909374 273.4871Q51.284374 273.4871 51.940624 274.37772Q52.596874 275.25272 52.6125 277.09647L52.6125 278.50272ZM51.51875 277.01834Q51.51875 275.64334 51.128124 275.01834Q50.753124 274.37772 49.909374 274.37772Q49.08125 274.37772 48.690624 275.01834Q48.315624 275.64334 48.315624 276.94022L48.315624 278.6746Q48.315624 280.0496 48.70625 280.72147Q49.1125 281.37772 49.925 281.37772Q50.721874 281.37772 51.1125 280.75272Q51.503124 280.12772 51.51875 278.7996L51.51875 277.01834Z" fill-rule="nonzero"/><path fill="#000000" d="M26.753124 224.05542L27.190624 219.80542L31.565624 219.80542L31.565624 220.80542L28.1125 220.80542L27.846874 223.13354Q28.4875 222.75854 29.284374 222.75854Q30.440624 222.75854 31.128124 223.5398Q31.815624 224.30542 31.815624 225.61792Q31.815624 226.93042 31.096874 227.69604Q30.39375 228.46167 29.1125 228.46167Q27.9875 228.46167 27.26875 227.83667Q26.55 227.19604 26.45625 226.08667L27.471874 226.08667Q27.58125 226.82104 28.003124 227.19604Q28.425 227.57104 29.1125 227.57104Q29.8625 227.57104 30.3 227.05542Q30.7375 226.5398 30.7375 225.63354Q30.7375 224.77417 30.26875 224.25854Q29.8 223.74292 29.01875 223.74292Q28.315624 223.74292 27.909374 224.0398L27.628124 224.27417L26.753124 224.05542ZM38.6125 224.69604Q38.6125 226.6023 37.95625 227.5398Q37.315624 228.46167 35.925 228.46167Q34.565624 228.46167 33.909374 227.55542Q33.253124 226.64917 33.221874 224.83667L33.221874 223.39917Q33.221874 221.50854 33.8625 220.6023Q34.51875 219.68042 35.909374 219.68042Q37.284374 219.68042 37.940624 220.57104Q38.596874 221.44604 38.6125 223.2898L38.6125 224.69604ZM37.51875 223.21167Q37.51875 221.83667 37.128124 221.21167Q36.753124 220.57104 35.909374 220.57104Q35.08125 220.57104 34.690624 221.21167Q34.315624 221.83667 34.315624 223.13354L34.315624 224.86792Q34.315624 226.24292 34.70625 226.9148Q35.1125 227.57104 35.925 227.57104Q36.721874 227.57104 37.1125 226.94604Q37.503124 226.32104 37.51875 224.99292L37.51875 223.21167ZM45.6125 224.69604Q45.6125 226.6023 44.95625 227.5398Q44.315624 228.46167 42.925 228.46167Q41.565624 228.46167 40.909374 227.55542Q40.253124 226.64917 40.221874 224.83667L40.221874 223.39917Q40.221874 221.50854 40.8625 220.6023Q41.51875 219.68042 42.909374 219.68042Q44.284374 219.68042 44.940624 220.57104Q45.596874 221.44604 45.6125 223.2898L45.6125 224.69604ZM44.51875 223.21167Q44.51875 221.83667 44.128124 221.21167Q43.753124 220.57104 42.909374 220.57104Q42.08125 220.57104 41.690624 221.21167Q41.315624 221.83667 41.315624 223.13354L41.315624 224.86792Q41.315624 226.24292 41.70625 226.9148Q42.1125 227.57104 42.925 227.57104Q43.721874 227.57104 44.1125 226.94604Q44.503124 226.32104 44.51875 224.99292L44.51875 223.21167ZM52.6125 224.69604Q52.6125 226.6023 51.95625 227.5398Q51.315624 228.46167 49.925 228.46167Q48.565624 228.46167 47.909374 227.55542Q47.253124 226.64917 47.221874 224.83667L47.221874 223.39917Q47.221874 221.50854 47.8625 220.6023Q48.51875 219.68042 49.909374 219.68042Q51.284374 219.68042 51.940624 220.57104Q52.596874 221.44604 52.6125 223.2898L52.6125 224.69604ZM51.51875 223.21167Q51.51875 221.83667 51.128124 221.21167Q50.753124 220.57104 49.909374 220.57104Q49.08125 220.57104 48.690624 221.21167Q48.315624 221.83667 48.315624 223.13354L48.315624 224.86792Q48.315624 226.24292 48.70625 226.9148Q49.1125 227.57104 49.925 227.57104Q50.721874 227.57104 51.1125 226.94604Q51.503124 226.32104 51.51875 224.99292L51.51875 223.21167Z" fill-rule="nonzero"/><path fill="#000000" d="M31.76875 166.60812L28.2375 174.53L27.096874 174.53L30.6125 166.88937L26.003124 166.88937L26.003124 165.99875L31.76875 165.99875L31.76875 166.60812ZM33.753124 170.24875L34.190624 165.99875L38.565624 165.99875L38.565624 166.99875L35.1125 166.99875L34.846874 169.32687Q35.4875 168.95187 36.284374 168.95187Q37.440624 168.95187 38.128124 169.73312Q38.815624 170.49875 38.815624 171.81125Q38.815624 173.12375 38.096874 173.88937Q37.39375 174.655 36.1125 174.655Q34.9875 174.655 34.26875 174.03Q33.55 173.38937 33.45625 172.28L34.471874 172.28Q34.58125 173.01437 35.003124 173.38937Q35.425 173.76437 36.1125 173.76437Q36.8625 173.76437 37.3 173.24875Q37.7375 172.73312 37.7375 171.82687Q37.7375 170.9675 37.26875 170.45187Q36.8 169.93625 36.01875 169.93625Q35.315624 169.93625 34.909374 170.23312L34.628124 170.4675L33.753124 170.24875ZM45.6125 170.88937Q45.6125 172.79562 44.95625 173.73312Q44.315624 174.655 42.925 174.655Q41.565624 174.655 40.909374 173.74875Q40.253124 172.8425 40.221874 171.03L40.221874 169.5925Q40.221874 167.70187 40.8625 166.79562Q41.51875 165.87375 42.909374 165.87375Q44.284374 165.87375 44.940624 166.76437Q45.596874 167.63937 45.6125 169.48312L45.6125 170.88937ZM44.51875 169.405Q44.51875 168.03 44.128124 167.405Q43.753124 166.76437 42.909374 166.76437Q42.08125 166.76437 41.690624 167.405Q41.315624 168.03 41.315624 169.32687L41.315624 171.06125Q41.315624 172.43625 41.70625 173.10812Q42.1125 173.76437 42.925 173.76437Q43.721874 173.76437 44.1125 173.13937Q44.503124 172.51437 44.51875 171.18625L44.51875 169.405ZM52.6125 170.88937Q52.6125 172.79562 51.95625 173.73312Q51.315624 174.655 49.925 174.655Q48.565624 174.655 47.909374 173.74875Q47.253124 172.8425 47.221874 171.03L47.221874 169.5925Q47.221874 167.70187 47.8625 166.79562Q48.51875 165.87375 49.909374 165.87375Q51.284374 165.87375 51.940624 166.76437Q52.596874 167.63937 52.6125 169.48312L52.6125 170.88937ZM51.51875 169.405Q51.51875 168.03 51.128124 167.405Q50.753124 166.76437 49.909374 166.76437Q49.08125 166.76437 48.690624 167.405Q48.315624 168.03 48.315624 169.32687L48.315624 171.06125Q48.315624 172.43625 48.70625 173.10812Q49.1125 173.76437 49.925 173.76437Q50.721874 173.76437 51.1125 173.13937Q51.503124 172.51437 51.51875 171.18625L51.51875 169.405Z" fill-rule="nonzero"/><path fill="#000000" d="M22.815624 120.723335L21.7375 120.723335L21.7375 113.504585L19.55 114.30146L19.55 113.317085L22.659374 112.14521L22.815624 112.14521L22.815624 120.723335ZM31.6125 117.08271Q31.6125 118.98896 30.95625 119.92646Q30.315624 120.848335 28.925 120.848335Q27.565624 120.848335 26.909374 119.942085Q26.253124 119.035835 26.221874 117.223335L26.221874 115.785835Q26.221874 113.89521 26.8625 112.98896Q27.51875 112.067085 28.909374 112.067085Q30.284374 112.067085 30.940624 112.95771Q31.596874 113.83271 31.6125 115.67646L31.6125 117.08271ZM30.51875 115.598335Q30.51875 114.223335 30.128124 113.598335Q29.753124 112.95771 28.909374 112.95771Q28.08125 112.95771 27.690624 113.598335Q27.315624 114.223335 27.315624 115.52021L27.315624 117.254585Q27.315624 118.629585 27.70625 119.30146Q28.1125 119.95771 28.925 119.95771Q29.721874 119.95771 30.1125 119.33271Q30.503124 118.70771 30.51875 117.379585L30.51875 115.598335ZM38.6125 117.08271Q38.6125 118.98896 37.95625 119.92646Q37.315624 120.848335 35.925 120.848335Q34.565624 120.848335 33.909374 119.942085Q33.253124 119.035835 33.221874 117.223335L33.221874 115.785835Q33.221874 113.89521 33.8625 112.98896Q34.51875 112.067085 35.909374 112.067085Q37.284374 112.067085 37.940624 112.95771Q38.596874 113.83271 38.6125 115.67646L38.6125 117.08271ZM37.51875 115.598335Q37.51875 114.223335 37.128124 113.598335Q36.753124 112.95771 35.909374 112.95771Q35.08125 112.95771 34.690624 113.598335Q34.315624 114.223335 34.315624 115.52021L34.315624 117.254585Q34.315624 118.629585 34.70625 119.30146Q35.1125 119.95771 35.925 119.95771Q36.721874 119.95771 37.1125 119.33271Q37.503124 118.70771 37.51875 117.379585L37.51875 115.598335ZM45.6125 117.08271Q45.6125 118.98896 44.95625 119.92646Q44.315624 120.848335 42.925 120.848335Q41.565624 120.848335 40.909374 119.942085Q40.253124 119.035835 40.221874 117.223335L40.221874 115.785835Q40.221874 113.89521 40.8625 112.98896Q41.51875 112.067085 42.909374 112.067085Q44.284374 112.067085 44.940624 112.95771Q45.596874 113.83271 45.6125 115.67646L45.6125 117.08271ZM44.51875 115.598335Q44.51875 114.223335 44.128124 113.598335Q43.753124 112.95771 42.909374 112.95771Q42.08125 112.95771 41.690624 113.598335Q41.315624 114.223335 41.315624 115.52021L41.315624 117.254585Q41.315624 118.629585 41.70625 119.30146Q42.1125 119.95771 42.925 119.95771Q43.721874 119.95771 44.1125 119.33271Q44.503124 118.70771 44.51875 117.379585L44.51875 115.598335ZM52.6125 117.08271Q52.6125 118.98896 51.95625 119.92646Q51.315624 120.848335 49.925 120.848335Q48.565624 120.848335 47.909374 119.942085Q47.253124 119.035835 47.221874 117.223335L47.221874 115.785835Q47.221874 113.89521 47.8625 112.98896Q48.51875 112.067085 49.909374 112.067085Q51.284374 112.067085 51.940624 112.95771Q52.596874 113.83271 52.6125 115.67646L52.6125 117.08271ZM51.51875 115.598335Q51.51875 114.223335 51.128124 113.598335Q50.753124 112.95771 49.909374 112.95771Q49.08125 112.95771 48.690624 113.598335Q48.315624 114.223335 48.315624 115.52021L48.315624 117.254585Q48.315624 118.629585 48.70625 119.30146Q49.1125 119.95771 49.925 119.95771Q50.721874 119.95771 51.1125 119.33271Q51.503124 118.70771 51.51875 117.379585L51.51875 115.598335Z" fill-rule="nonzero"/><path fill="#000000" d="M22.815624 66.916664L21.7375 66.916664L21.7375 59.697914L19.55 60.49479L19.55 59.510414L22.659374 58.33854L22.815624 58.33854L22.815624 66.916664ZM31.846874 66.916664L26.253124 66.916664L26.253124 66.135414L29.20625 62.854164Q29.8625 62.104164 30.1125 61.65104Q30.3625 61.18229 30.3625 60.68229Q30.3625 60.010414 29.95625 59.58854Q29.565624 59.15104 28.878124 59.15104Q28.08125 59.15104 27.628124 59.61979Q27.175 60.072914 27.175 60.90104L26.096874 60.90104Q26.096874 59.71354 26.846874 58.99479Q27.6125 58.260414 28.878124 58.260414Q30.08125 58.260414 30.76875 58.885414Q31.45625 59.510414 31.45625 60.55729Q31.45625 61.80729 29.846874 63.55729L27.565624 66.02604L31.846874 66.02604L31.846874 66.916664ZM33.753124 62.635414L34.190624 58.385414L38.565624 58.385414L38.565624 59.385414L35.1125 59.385414L34.846874 61.71354Q35.4875 61.33854 36.284374 61.33854Q37.440624 61.33854 38.128124 62.11979Q38.815624 62.885414 38.815624 64.197914Q38.815624 65.510414 38.096874 66.27604Q37.39375 67.041664 36.1125 67.041664Q34.9875 67.041664 34.26875 66.416664Q33.55 65.77604 33.45625 64.666664L34.471874 64.666664Q34.58125 65.40104 35.003124 65.77604Q35.425 66.15104 36.1125 66.15104Q36.8625 66.15104 37.3 65.635414Q37.7375 65.11979 37.7375 64.21354Q37.7375 63.354164 37.26875 62.83854Q36.8 62.322914 36.01875 62.322914Q35.315624 62.322914 34.909374 62.61979L34.628124 62.854164L33.753124 62.635414ZM45.6125 63.27604Q45.6125 65.18229 44.95625 66.11979Q44.315624 67.041664 42.925 67.041664Q41.565624 67.041664 40.909374 66.135414Q40.253124 65.229164 40.221874 63.416664L40.221874 61.979164Q40.221874 60.08854 40.8625 59.18229Q41.51875 58.260414 42.909374 58.260414Q44.284374 58.260414 44.940624 59.15104Q45.596874 60.02604 45.6125 61.86979L45.6125 63.27604ZM44.51875 61.791664Q44.51875 60.416664 44.128124 59.791664Q43.753124 59.15104 42.909374 59.15104Q42.08125 59.15104 41.690624 59.791664Q41.315624 60.416664 41.315624 61.71354L41.315624 63.447914Q41.315624 64.822914 41.70625 65.49479Q42.1125 66.15104 42.925 66.15104Q43.721874 66.15104 44.1125 65.52604Q44.503124 64.90104 44.51875 63.572914L44.51875 61.791664ZM52.6125 63.27604Q52.6125 65.18229 51.95625 66.11979Q51.315624 67.041664 49.925 67.041664Q48.565624 67.041664 47.909374 66.135414Q47.253124 65.229164 47.221874 63.416664L47.221874 61.979164Q47.221874 60.08854 47.8625 59.18229Q48.51875 58.260414 49.909374 58.260414Q51.284374 58.260414 51.940624 59.15104Q52.596874 60.02604 52.6125 61.86979L52.6125 63.27604ZM51.51875 61.791664Q51.51875 60.416664 51.128124 59.791664Q50.753124 59.15104 49.909374 59.15104Q49.08125 59.15104 48.690624 59.791664Q48.315624 60.416664 48.315624 61.71354L48.315624 63.447914Q48.315624 64.822914 48.70625 65.49479Q49.1125 66.15104 49.925 66.15104Q50.721874 66.15104 51.1125 65.52604Q51.503124 64.90104 51.51875 63.572914L51.51875 61.791664Z" fill-rule="nonzero"/><path fill="#000000" d="M139.31459 344.65314L140.12709 344.65314Q140.90834 344.6375 141.34584 344.2469Q141.78334 343.85626 141.78334 343.1844Q141.78334 341.6844 140.28334 341.6844Q139.58022 341.6844 139.15834 342.09064Q138.75209 342.4969 138.75209 343.15314L137.65834 343.15314Q137.65834 342.1375 138.39272 341.46564Q139.14272 340.79376 140.28334 340.79376Q141.48647 340.79376 142.17397 341.4344Q142.86147 342.075 142.86147 343.21564Q142.86147 343.77814 142.50209 344.29376Q142.14272 344.8094 141.51772 345.075Q142.22084 345.29376 142.59584 345.8094Q142.98647 346.325 142.98647 347.075Q142.98647 348.21564 142.23647 348.90314Q141.48647 349.575 140.28334 349.575Q139.09584 349.575 138.33022 348.91876Q137.58022 348.2625 137.58022 347.2L138.67397 347.2Q138.67397 347.8719 139.11147 348.27814Q139.54897 348.6844 140.29897 348.6844Q141.08022 348.6844 141.48647 348.27814Q141.90834 347.85626 141.90834 347.09064Q141.90834 346.35626 141.45522 345.96564Q141.00209 345.5594 140.12709 345.54376L139.31459 345.54376L139.31459 344.65314ZM145.06459 350.1844L144.14272 350.1844L147.70522 340.91876L148.62709 340.91876L145.06459 350.1844ZM154.92397 343.1375Q154.92397 343.77814 154.58022 344.27814Q154.23647 344.77814 153.67397 345.0594Q154.33022 345.34064 154.72084 345.90314Q155.11147 346.45 155.11147 347.15314Q155.11147 348.2469 154.36147 348.91876Q153.62709 349.575 152.40834 349.575Q151.17397 349.575 150.42397 348.91876Q149.68959 348.2469 149.68959 347.15314Q149.68959 346.45 150.06459 345.90314Q150.43959 345.34064 151.11147 345.0594Q150.54897 344.77814 150.22084 344.27814Q149.89272 343.77814 149.89272 343.1375Q149.89272 342.0594 150.58022 341.4344Q151.26772 340.79376 152.40834 340.79376Q153.53334 340.79376 154.22084 341.4344Q154.92397 342.0594 154.92397 343.1375ZM154.03334 347.1219Q154.03334 346.40314 153.58022 345.96564Q153.12709 345.5125 152.39272 345.5125Q151.65834 345.5125 151.20522 345.96564Q150.76772 346.40314 150.76772 347.1375Q150.76772 347.85626 151.20522 348.27814Q151.64272 348.6844 152.40834 348.6844Q153.15834 348.6844 153.59584 348.2625Q154.03334 347.84064 154.03334 347.1219ZM152.40834 341.6844Q151.76772 341.6844 151.36147 342.09064Q150.97084 342.48126 150.97084 343.16876Q150.97084 343.8094 151.36147 344.21564Q151.75209 344.6219 152.39272 344.6219Q153.04897 344.6219 153.43959 344.21564Q153.83022 343.8094 153.83022 343.16876Q153.83022 342.5125 153.42397 342.10626Q153.01772 341.6844 152.40834 341.6844Z" fill-rule="nonzero"/><path fill="#000000" d="M288.03543 344.65314L288.84793 344.65314Q289.62918 344.6375 290.06668 344.2469Q290.50418 343.85626 290.50418 343.1844Q290.50418 341.6844 289.00418 341.6844Q288.30106 341.6844 287.87918 342.09064Q287.47293 342.4969 287.47293 343.15314L286.37918 343.15314Q286.37918 342.1375 287.11356 341.46564Q287.86356 340.79376 289.00418 340.79376Q290.2073 340.79376 290.8948 341.4344Q291.5823 342.075 291.5823 343.21564Q291.5823 343.77814 291.22293 344.29376Q290.86356 344.8094 290.23856 345.075Q290.94168 345.29376 291.31668 345.8094Q291.7073 346.325 291.7073 347.075Q291.7073 348.21564 290.9573 348.90314Q290.2073 349.575 289.00418 349.575Q287.81668 349.575 287.05106 348.91876Q286.30106 348.2625 286.30106 347.2L287.3948 347.2Q287.3948 347.8719 287.8323 348.27814Q288.2698 348.6844 289.0198 348.6844Q289.80106 348.6844 290.2073 348.27814Q290.62918 347.85626 290.62918 347.09064Q290.62918 346.35626 290.17606 345.96564Q289.72293 345.5594 288.84793 345.54376L288.03543 345.54376L288.03543 344.65314ZM293.78543 350.1844L292.86356 350.1844L296.42606 340.91876L297.34793 340.91876L293.78543 350.1844ZM302.0198 349.45L300.94168 349.45L300.94168 342.23126L298.75418 343.02814L298.75418 342.04376L301.86356 340.8719L302.0198 340.8719L302.0198 349.45ZM305.9573 345.16876L306.3948 340.91876L310.7698 340.91876L310.7698 341.91876L307.31668 341.91876L307.05106 344.2469Q307.69168 343.8719 308.48856 343.8719Q309.6448 343.8719 310.3323 344.65314Q311.0198 345.41876 311.0198 346.73126Q311.0198 348.04376 310.30106 348.8094Q309.59793 349.575 308.31668 349.575Q307.19168 349.575 306.47293 348.95Q305.75418 348.3094 305.66043 347.2L306.67606 347.2Q306.78543 347.9344 307.2073 348.3094Q307.62918 348.6844 308.31668 348.6844Q309.06668 348.6844 309.50418 348.16876Q309.94168 347.65314 309.94168 346.7469Q309.94168 345.8875 309.47293 345.3719Q309.00418 344.85626 308.22293 344.85626Q307.5198 344.85626 307.11356 345.15314L306.8323 345.3875L305.9573 345.16876Z" fill-rule="nonzero"/><path fill="#000000" d="M440.25626 344.65314L441.06876 344.65314Q441.85 344.6375 442.2875 344.2469Q442.725 343.85626 442.725 343.1844Q442.725 341.6844 441.225 341.6844Q440.52188 341.6844 440.1 342.09064Q439.69376 342.4969 439.69376 343.15314L438.6 343.15314Q438.6 342.1375 439.33438 341.46564Q440.08438 340.79376 441.225 340.79376Q442.42813 340.79376 443.11563 341.4344Q443.80313 342.075 443.80313 343.21564Q443.80313 343.77814 443.44376 344.29376Q443.08438 344.8094 442.45938 345.075Q443.1625 345.29376 443.5375 345.8094Q443.92813 346.325 443.92813 347.075Q443.92813 348.21564 443.17813 348.90314Q442.42813 349.575 441.225 349.575Q440.0375 349.575 439.27188 348.91876Q438.52188 348.2625 438.52188 347.2L439.61563 347.2Q439.61563 347.8719 440.05313 348.27814Q440.49063 348.6844 441.24063 348.6844Q442.02188 348.6844 442.42813 348.27814Q442.85 347.85626 442.85 347.09064Q442.85 346.35626 442.39688 345.96564Q441.94376 345.5594 441.06876 345.54376L440.25626 345.54376L440.25626 344.65314ZM446.00626 350.1844L445.08438 350.1844L448.64688 340.91876L449.56876 340.91876L446.00626 350.1844ZM456.27188 349.45L450.67813 349.45L450.67813 348.66876L453.63126 345.3875Q454.2875 344.6375 454.5375 344.1844Q454.7875 343.71564 454.7875 343.21564Q454.7875 342.54376 454.38126 342.1219Q453.99063 341.6844 453.30313 341.6844Q452.50626 341.6844 452.05313 342.15314Q451.6 342.60626 451.6 343.4344L450.52188 343.4344Q450.52188 342.2469 451.27188 341.52814Q452.0375 340.79376 453.30313 340.79376Q454.50626 340.79376 455.19376 341.41876Q455.88126 342.04376 455.88126 343.09064Q455.88126 344.34064 454.27188 346.09064L451.99063 348.5594L456.27188 348.5594L456.27188 349.45ZM463.27188 349.45L457.67813 349.45L457.67813 348.66876L460.63126 345.3875Q461.2875 344.6375 461.5375 344.1844Q461.7875 343.71564 461.7875 343.21564Q461.7875 342.54376 461.38126 342.1219Q460.99063 341.6844 460.30313 341.6844Q459.50626 341.6844 459.05313 342.15314Q458.6 342.60626 458.6 343.4344L457.52188 343.4344Q457.52188 342.2469 458.27188 341.52814Q459.0375 340.79376 460.30313 340.79376Q461.50626 340.79376 462.19376 341.41876Q462.88126 342.04376 462.88126 343.09064Q462.88126 344.34064 461.27188 346.09064L458.99063 348.5594L463.27188 348.5594L463.27188 349.45Z" fill-rule="nonzero"/><path fill="#000000" d="M20.034374 37.55L20.034374 23.2375L22.846874 23.2375L28.70625 32.8L28.70625 23.2375L31.39375 23.2375L31.39375 37.55L28.4875 37.55L22.721874 28.20625L22.721874 37.55L20.034374 37.55ZM39.9875 34.253124L42.721874 34.70625Q42.20625 36.20625 41.065624 37.003124Q39.925 37.784374 38.221874 37.784374Q35.503124 37.784374 34.20625 36.01875Q33.190624 34.596874 33.190624 32.440624Q33.190624 29.8625 34.534374 28.409374Q35.878124 26.940624 37.940624 26.940624Q40.253124 26.940624 41.58125 28.471874Q42.925 30.003124 42.878124 33.159374L36.003124 33.159374Q36.034374 34.378124 36.659374 35.065624Q37.3 35.7375 38.2375 35.7375Q38.89375 35.7375 39.33125 35.39375Q39.76875 35.034374 39.9875 34.253124ZM40.14375 31.471874Q40.1125 30.284374 39.51875 29.675Q38.940624 29.05 38.1125 29.05Q37.20625 29.05 36.628124 29.690624Q36.034374 30.346874 36.05 31.471874L40.14375 31.471874ZM46.925 37.55L43.64375 27.175L46.3 27.175L48.253124 33.971874L50.034374 27.175L52.675 27.175L54.409374 33.971874L56.39375 27.175L59.096874 27.175L55.76875 37.55L53.128124 37.55L51.346874 30.878124L49.58125 37.55L46.925 37.55ZM72.175 23.2375L75.05 23.2375L75.05 32.3Q75.05 34.065624 74.7375 35.034374Q74.31563 36.284374 73.20625 37.05Q72.1125 37.8 70.3 37.8Q68.19063 37.8 67.05 36.6125Q65.90938 35.425 65.89375 33.128124L68.6125 32.815624Q68.65938 34.05 68.97188 34.55Q69.44063 35.315624 70.40938 35.315624Q71.37813 35.315624 71.76875 34.76875Q72.175 34.221874 72.175 32.4875L72.175 23.2375ZM83.9875 34.253124L86.72188 34.70625Q86.20625 36.20625 85.06563 37.003124Q83.925 37.784374 82.22188 37.784374Q79.50313 37.784374 78.20625 36.01875Q77.19063 34.596874 77.19063 32.440624Q77.19063 29.8625 78.53438 28.409374Q79.87813 26.940624 81.94063 26.940624Q84.25313 26.940624 85.58125 28.471874Q86.925 30.003124 86.87813 33.159374L80.00313 33.159374Q80.03438 34.378124 80.65938 35.065624Q81.3 35.7375 82.2375 35.7375Q82.89375 35.7375 83.33125 35.39375Q83.76875 35.034374 83.9875 34.253124ZM84.14375 31.471874Q84.1125 30.284374 83.51875 29.675Q82.94063 29.05 82.1125 29.05Q81.20625 29.05 80.62813 29.690624Q80.03438 30.346874 80.05 31.471874L84.14375 31.471874ZM91.6125 37.55L88.8625 37.55L88.8625 27.175L91.425 27.175L91.425 28.659374Q92.06563 27.6125 92.58125 27.284374Q93.1125 26.940624 93.78438 26.940624Q94.72188 26.940624 95.58125 27.45625L94.7375 29.846874Q94.05 29.409374 93.45625 29.409374Q92.87813 29.409374 92.47188 29.721874Q92.06563 30.034374 91.83125 30.878124Q91.6125 31.70625 91.6125 34.346874L91.6125 37.55ZM96.01875 34.596874L98.76875 34.175Q98.95625 34.971874 99.4875 35.39375Q100.01875 35.8 100.9875 35.8Q102.05 35.8 102.59688 35.409374Q102.95625 35.14375 102.95625 34.675Q102.95625 34.3625 102.75313 34.159374Q102.55 33.971874 101.84688 33.8Q98.51875 33.065624 97.62813 32.45625Q96.39375 31.628124 96.39375 30.128124Q96.39375 28.784374 97.45625 27.8625Q98.53438 26.940624 100.76875 26.940624Q102.89375 26.940624 103.925 27.64375Q104.97188 28.33125 105.3625 29.690624L102.76875 30.159374Q102.59688 29.565624 102.12813 29.2375Q101.675 28.909374 100.81563 28.909374Q99.7375 28.909374 99.26875 29.221874Q98.95625 29.440624 98.95625 29.76875Q98.95625 30.065624 99.22188 30.26875Q99.59688 30.55 101.78438 31.05Q103.97188 31.55 104.84688 32.26875Q105.70625 33.003124 105.70625 34.3Q105.70625 35.7375 104.51875 36.76875Q103.33125 37.784374 100.9875 37.784374Q98.87813 37.784374 97.62813 36.925Q96.39375 36.065624 96.01875 34.596874ZM113.9875 34.253124L116.72188 34.70625Q116.20625 36.20625 115.06563 37.003124Q113.925 37.784374 112.22188 37.784374Q109.50313 37.784374 108.20625 36.01875Q107.19063 34.596874 107.19063 32.440624Q107.19063 29.8625 108.53438 28.409374Q109.87813 26.940624 111.94063 26.940624Q114.25313 26.940624 115.58125 28.471874Q116.925 30.003124 116.87813 33.159374L110.00313 33.159374Q110.03438 34.378124 110.65938 35.065624Q111.3 35.7375 112.2375 35.7375Q112.89375 35.7375 113.33125 35.39375Q113.76875 35.034374 113.9875 34.253124ZM114.14375 31.471874Q114.1125 30.284374 113.51875 29.675Q112.94063 29.05 112.1125 29.05Q111.20625 29.05 110.62813 29.690624Q110.03438 30.346874 110.05 31.471874L114.14375 31.471874ZM117.69063 27.175L120.6125 27.175L123.08125 34.534374L125.50313 27.175L128.34688 27.175L124.69063 37.159374L124.03438 38.971874Q123.675 39.878124 123.34688 40.346874Q123.01875 40.83125 122.59688 41.128124Q122.175 41.425 121.55 41.58125Q120.925 41.753124 120.14375 41.753124Q119.3625 41.753124 118.59688 41.596874L118.34688 39.440624Q119.00313 39.565624 119.51875 39.565624Q120.47188 39.565624 120.925 39.003124Q121.39375 38.45625 121.62813 37.58125L117.69063 27.175ZM145.15938 32.284374L147.97188 33.175Q147.33125 35.51875 145.83125 36.659374Q144.33125 37.8 142.01875 37.8Q139.175 37.8 137.33125 35.846874Q135.50313 33.89375 135.50313 30.51875Q135.50313 26.940624 137.34688 24.971874Q139.19063 22.9875 142.19063 22.9875Q144.83125 22.9875 146.47188 24.534374Q147.44063 25.45625 147.925 27.175L145.06563 27.8625Q144.81563 26.753124 144.00313 26.1125Q143.20625 25.45625 142.05 25.45625Q140.45625 25.45625 139.45625 26.596874Q138.47188 27.7375 138.47188 30.3Q138.47188 33.01875 139.44063 34.175Q140.425 35.315624 141.9875 35.315624Q143.14375 35.315624 143.97188 34.596874Q144.8 33.8625 145.15938 32.284374ZM152.03438 30.346874L149.55 29.89375Q149.97188 28.39375 150.9875 27.675Q152.01875 26.940624 154.03438 26.940624Q155.87813 26.940624 156.76875 27.378124Q157.675 27.815624 158.03438 28.4875Q158.40938 29.14375 158.40938 30.940624L158.37813 34.14375Q158.37813 35.503124 158.50313 36.159374Q158.64375 36.8 159.00313 37.55L156.28438 37.55Q156.175 37.26875 156.01875 36.7375Q155.95625 36.4875 155.925 36.409374Q155.22188 37.096874 154.40938 37.440624Q153.6125 37.784374 152.70625 37.784374Q151.1125 37.784374 150.19063 36.925Q149.26875 36.05 149.26875 34.721874Q149.26875 33.83125 149.675 33.14375Q150.09688 32.45625 150.84688 32.096874Q151.6125 31.721874 153.05 31.45625Q154.97188 31.096874 155.70625 30.784374L155.70625 30.503124Q155.70625 29.721874 155.31563 29.39375Q154.925 29.05 153.84688 29.05Q153.1125 29.05 152.69063 29.33125Q152.28438 29.6125 152.03438 30.346874ZM155.70625 32.565624Q155.175 32.7375 154.03438 32.9875Q152.89375 33.2375 152.55 33.471874Q152.00313 33.846874 152.00313 34.440624Q152.00313 35.003124 152.425 35.425Q152.8625 35.846874 153.53438 35.846874Q154.26875 35.846874 154.94063 35.3625Q155.44063 34.9875 155.59688 34.45625Q155.70625 34.096874 155.70625 33.1125L155.70625 32.565624ZM160.01875 34.596874L162.76875 34.175Q162.95625 34.971874 163.4875 35.39375Q164.01875 35.8 164.9875 35.8Q166.05 35.8 166.59688 35.409374Q166.95625 35.14375 166.95625 34.675Q166.95625 34.3625 166.75313 34.159374Q166.55 33.971874 165.84688 33.8Q162.51875 33.065624 161.62813 32.45625Q160.39375 31.628124 160.39375 30.128124Q160.39375 28.784374 161.45625 27.8625Q162.53438 26.940624 164.76875 26.940624Q166.89375 26.940624 167.925 27.64375Q168.97188 28.33125 169.3625 29.690624L166.76875 30.159374Q166.59688 29.565624 166.12813 29.2375Q165.675 28.909374 164.81563 28.909374Q163.7375 28.909374 163.26875 29.221874Q162.95625 29.440624 162.95625 29.76875Q162.95625 30.065624 163.22188 30.26875Q163.59688 30.55 165.78438 31.05Q167.97188 31.55 168.84688 32.26875Q169.70625 33.003124 169.70625 34.3Q169.70625 35.7375 168.51875 36.76875Q167.33125 37.784374 164.9875 37.784374Q162.87813 37.784374 161.62813 36.925Q160.39375 36.065624 160.01875 34.596874ZM177.9875 34.253124L180.72188 34.70625Q180.20625 36.20625 179.06563 37.003124Q177.925 37.784374 176.22188 37.784374Q173.50313 37.784374 172.20625 36.01875Q171.19063 34.596874 171.19063 32.440624Q171.19063 29.8625 172.53438 28.409374Q173.87813 26.940624 175.94063 26.940624Q178.25313 26.940624 179.58125 28.471874Q180.925 30.003124 180.87813 33.159374L174.00313 33.159374Q174.03438 34.378124 174.65938 35.065624Q175.3 35.7375 176.2375 35.7375Q176.89375 35.7375 177.33125 35.39375Q177.76875 35.034374 177.9875 34.253124ZM178.14375 31.471874Q178.1125 30.284374 177.51875 29.675Q176.94063 29.05 176.1125 29.05Q175.20625 29.05 174.62813 29.690624Q174.03438 30.346874 174.05 31.471874L178.14375 31.471874ZM182.01875 34.596874L184.76875 34.175Q184.95625 34.971874 185.4875 35.39375Q186.01875 35.8 186.9875 35.8Q188.05 35.8 188.59688 35.409374Q188.95625 35.14375 188.95625 34.675Q188.95625 34.3625 188.75313 34.159374Q188.55 33.971874 187.84688 33.8Q184.51875 33.065624 183.62813 32.45625Q182.39375 31.628124 182.39375 30.128124Q182.39375 28.784374 183.45625 27.8625Q184.53438 26.940624 186.76875 26.940624Q188.89375 26.940624 189.925 27.64375Q190.97188 28.33125 191.3625 29.690624L188.76875 30.159374Q188.59688 29.565624 188.12813 29.2375Q187.675 28.909374 186.81563 28.909374Q185.7375 28.909374 185.26875 29.221874Q184.95625 29.440624 184.95625 29.76875Q184.95625 30.065624 185.22188 30.26875Q185.59688 30.55 187.78438 31.05Q189.97188 31.55 190.84688 32.26875Q191.70625 33.003124 191.70625 34.3Q191.70625 35.7375 190.51875 36.76875Q189.33125 37.784374 186.9875 37.784374Q184.87813 37.784374 183.62813 36.925Q182.39375 36.065624 182.01875 34.596874ZM199.425 30.471874Q199.425 28.284374 200.08125 26.8Q200.56563 25.70625 201.40938 24.846874Q202.25313 23.971874 203.25313 23.55Q204.59688 22.9875 206.34688 22.9875Q209.50313 22.9875 211.39375 24.95625Q213.3 26.909374 213.3 30.409374Q213.3 33.878124 211.40938 35.846874Q209.53438 37.8 206.37813 37.8Q203.19063 37.8 201.3 35.846874Q199.425 33.89375 199.425 30.471874ZM202.39375 30.378124Q202.39375 32.815624 203.51875 34.065624Q204.64375 35.315624 206.37813 35.315624Q208.09688 35.315624 209.20625 34.08125Q210.31563 32.83125 210.31563 30.346874Q210.31563 27.878124 209.2375 26.675Q208.15938 25.45625 206.37813 25.45625Q204.58125 25.45625 203.4875 26.690624Q202.39375 27.909374 202.39375 30.378124ZM218.83125 37.55L214.65938 27.175L217.53438 27.175L219.4875 32.471874L220.06563 34.2375Q220.28438 33.565624 220.34688 33.346874Q220.47188 32.909374 220.62813 32.471874L222.6125 27.175L225.425 27.175L221.31563 37.55L218.83125 37.55ZM232.9875 34.253124L235.72188 34.70625Q235.20625 36.20625 234.06563 37.003124Q232.925 37.784374 231.22188 37.784374Q228.50313 37.784374 227.20625 36.01875Q226.19063 34.596874 226.19063 32.440624Q226.19063 29.8625 227.53438 28.409374Q228.87813 26.940624 230.94063 26.940624Q233.25313 26.940624 234.58125 28.471874Q235.925 30.003124 235.87813 33.159374L229.00313 33.159374Q229.03438 34.378124 229.65938 35.065624Q230.3 35.7375 231.2375 35.7375Q231.89375 35.7375 232.33125 35.39375Q232.76875 35.034374 232.9875 34.253124ZM233.14375 31.471874Q233.1125 30.284374 232.51875 29.675Q231.94063 29.05 231.1125 29.05Q230.20625 29.05 229.62813 29.690624Q229.03438 30.346874 229.05 31.471874L233.14375 31.471874ZM240.6125 37.55L237.8625 37.55L237.8625 27.175L240.425 27.175L240.425 28.659374Q241.06563 27.6125 241.58125 27.284374Q242.1125 26.940624 242.78438 26.940624Q243.72188 26.940624 244.58125 27.45625L243.7375 29.846874Q243.05 29.409374 242.45625 29.409374Q241.87813 29.409374 241.47188 29.721874Q241.06563 30.034374 240.83125 30.878124Q240.6125 31.70625 240.6125 34.346874L240.6125 37.55ZM255.22188 37.55L255.22188 25.659374L250.9875 25.659374L250.9875 23.2375L262.3625 23.2375L262.3625 25.659374L258.1125 25.659374L258.1125 37.55L255.22188 37.55ZM263.9875 25.76875L263.9875 23.2375L266.7375 23.2375L266.7375 25.76875L263.9875 25.76875ZM263.9875 37.55L263.9875 27.175L266.7375 27.175L266.7375 37.55L263.9875 37.55ZM269.78436 27.175L272.3156 27.175L272.3156 28.596874Q273.675 26.940624 275.55 26.940624Q276.53436 26.940624 277.26874 27.3625Q278.0031 27.76875 278.47186 28.596874Q279.15936 27.76875 279.9406 27.3625Q280.7375 26.940624 281.64374 26.940624Q282.78436 26.940624 283.5656 27.409374Q284.3625 27.878124 284.7531 28.76875Q285.03436 29.440624 285.03436 30.925L285.03436 37.55L282.28436 37.55L282.28436 31.628124Q282.28436 30.08125 282.0031 29.628124Q281.6281 29.05 280.83124 29.05Q280.2531 29.05 279.7375 29.409374Q279.2375 29.753124 279.01874 30.425Q278.8 31.096874 278.8 32.565624L278.8 37.55L276.05 37.55L276.05 31.8625Q276.05 30.346874 275.89374 29.909374Q275.7531 29.471874 275.4406 29.26875Q275.14374 29.05 274.6125 29.05Q273.9875 29.05 273.47186 29.39375Q272.97186 29.721874 272.7375 30.378124Q272.51874 31.01875 272.51874 32.503124L272.51874 37.55L269.78436 37.55L269.78436 27.175ZM293.9875 34.253124L296.72186 34.70625Q296.20624 36.20625 295.0656 37.003124Q293.925 37.784374 292.22186 37.784374Q289.5031 37.784374 288.20624 36.01875Q287.1906 34.596874 287.1906 32.440624Q287.1906 29.8625 288.53436 28.409374Q289.8781 26.940624 291.9406 26.940624Q294.2531 26.940624 295.58124 28.471874Q296.925 30.003124 296.8781 33.159374L290.0031 33.159374Q290.03436 34.378124 290.65936 35.065624Q291.3 35.7375 292.2375 35.7375Q292.89374 35.7375 293.33124 35.39375Q293.76874 35.034374 293.9875 34.253124ZM294.14374 31.471874Q294.1125 30.284374 293.51874 29.675Q292.9406 29.05 292.1125 29.05Q291.20624 29.05 290.6281 29.690624Q290.03436 30.346874 290.05 31.471874L294.14374 31.471874Z" fill-rule="nonzero"/></svg>